<svg width="2500" height="2500" viewBox="0 0 2500 2500" fill="none" xmlns="http://www.w3.org/2000/svg">
<g clip-path="url(#clip0_1_3)">
<path fill-rule="evenodd" clip-rule="evenodd" d="M1234.51 779.846C1225.37 783.802 1219.29 778.017 1226.9 771.623C1231.17 768.277 1234.83 760.054 1238.78 756.098C1245.18 750.003 1256.15 758.238 1250.96 766.15C1246.99 772.531 1241.82 776.5 1234.51 779.846ZM1526.28 1140.13C1526.28 1140.13 1547.59 1152.01 1548.8 1163.28C1550 1174.55 1552.14 1193.44 1534.48 1191.61C1516.83 1189.78 1470.21 1194.66 1453.47 1204.1C1436.43 1213.54 1422.11 1208.67 1415.7 1201.66C1409.32 1194.66 1397.44 1191.61 1388.59 1194.66C1379.78 1198 1354.81 1212.93 1350.24 1207.45C1345.96 1201.66 1338.97 1191.61 1359.06 1185.22C1379.18 1179.12 1363.63 1173.34 1349.61 1173.34H1335.9C1335.9 1173.34 1320.06 1177.91 1313.99 1183.39C1307.59 1189.17 1294.49 1192.83 1286.89 1183.39C1279.26 1173.93 1278.65 1150.18 1302.72 1151.4C1326.48 1152.62 1346.57 1137.69 1342.01 1131.3C1337.73 1124.91 1345.96 1118.81 1352.06 1127.64C1358.44 1136.49 1359.66 1135.57 1383.12 1141.35C1406.27 1147.14 1397.44 1133.74 1409.32 1145.01C1421.2 1156.59 1428.8 1153.23 1432.78 1141.35C1436.43 1129.47 1424.55 1106.93 1409.93 1114.86C1395.61 1123.08 1385.56 1117.59 1383.73 1111.2C1381.6 1104.8 1372.46 1098.1 1366.69 1099.93C1360.89 1101.76 1357.23 1086.83 1369.13 1082.88C1381.01 1079.23 1384.35 1062.78 1379.79 1057.3C1375.51 1051.51 1366.69 1043.9 1351.46 1054.56C1336.52 1065.22 1317.04 1057.3 1307.59 1056.7C1298.16 1055.78 1251.56 1059.73 1241.19 1068.58C1230.55 1077.41 1209.83 1066.75 1234.5 1050.91C1258.56 1035.08 1319.47 998.231 1320.08 986.052C1320.69 974.172 1312.79 934.588 1298.77 931.527C1285.06 928.493 1246.98 921.489 1237.55 916.911C1228.11 912.643 1192.17 908.389 1182.73 932.747C1173.58 957.415 1168.41 929.089 1168.41 929.089C1168.41 929.089 1134 898.325 1102.33 925.12C1070.95 952.227 1088.62 912.034 1095.62 905.03C1102.33 898.325 1118.16 883.098 1139.47 881.27C1160.79 879.441 1153.18 858.728 1193.69 858.728C1233.89 858.728 1222.92 840.454 1223.84 832.84C1224.45 825.227 1215.62 804.515 1233.89 794.476C1251.56 784.424 1256.13 782.596 1255.51 801.48C1254.9 820.364 1255.51 836.498 1263.73 836.498C1271.66 836.498 1271.05 856.601 1273.19 860.557C1275.02 864.214 1289.93 861.166 1299.39 854.772C1308.82 848.677 1317.04 848.677 1322.83 858.119C1328.32 867.561 1325.28 875.485 1324.04 881.27C1322.83 886.743 1320.7 896.185 1327.71 903.189C1334.71 910.192 1338.38 927.247 1334.1 935.172C1329.53 943.395 1325.28 955.885 1334.1 963.498C1342.94 971.111 1342.94 992.421 1360.89 994.872C1379.18 997.608 1386.17 1003.7 1398.66 1017.1C1411.15 1030.2 1420.59 1021.37 1410.54 1009.49C1400.49 997.608 1375.51 980.553 1390.42 964.108C1405.68 947.973 1408.71 970.502 1418.14 983.601C1427.58 996.999 1504.95 1122.47 1526.28 1140.13ZM1283.55 1890.85C1283.55 1890.85 1280.79 1920.69 1269.52 1902.73C1258.27 1885.08 1230.86 1864.96 1233.59 1837.85C1236.34 1810.75 1223.55 1807.4 1223.55 1807.4C1223.55 1807.4 1254.31 1814.69 1257.67 1850.64C1257.67 1850.64 1276.24 1845.78 1276.24 1870.45C1276.22 1894.8 1283.55 1890.85 1283.55 1890.85ZM1390.42 1251C1390.42 1251 1427.28 1234.54 1450.43 1251C1473.59 1267.44 1456.82 1293.02 1456.82 1293.02C1456.82 1293.02 1406.88 1317.37 1417.22 1345.41C1427.27 1373.42 1487.59 1395.34 1571.95 1398.98C1656.3 1402.97 1579.57 1425.78 1556.42 1425.78C1533.57 1425.78 1403.22 1456.56 1345.66 1383.76C1288.11 1310.98 1376.42 1260.12 1390.42 1251Z" fill="white"/>
<path fill-rule="evenodd" clip-rule="evenodd" d="M675.037 1349.06C675.037 1349.06 636.673 1479.72 636.673 1498.9C636.673 1518.09 635.142 1565 635.142 1565C635.142 1565 614.131 1512.61 624.494 1483.08C635.142 1453.55 638.502 1347.25 638.502 1328.05C638.502 1308.87 650.68 1216.9 675.05 1183.71C699.421 1150.51 680.225 1091.43 690.886 1075.6C701.236 1060.06 703.065 999.152 711.599 981.798C720.432 964.133 711.599 919.063 737.798 882.203C763.997 845.655 785.008 805.76 785.008 789.924C785.008 774.399 851.089 662.924 908.662 626.077C966.222 589.528 988.763 563.64 988.763 563.64C988.763 563.64 1112.4 448.52 1171.79 450.349C1230.88 451.867 1293.31 486.885 1317.68 486.885C1342.05 486.885 1415.43 504.252 1469.33 493.889C1523.23 483.241 1535.43 483.241 1546.09 458.87C1556.45 434.513 1563.44 340.405 1478.18 321.209C1392.6 302.027 1296.98 284.66 1112.4 305.671C927.857 326.384 903.487 333.388 847.756 317.85C792.025 302.014 774.36 220.395 858.106 183.548C941.864 146.999 979.931 148.828 1002.77 134.821C1025.3 120.813 1063.68 120.813 1075.87 112.279C1088.05 103.447 1095.05 127.817 1114.23 115.626C1133.41 103.447 1128.24 129.633 1148.95 120.8C1169.98 112.266 1171.79 124.445 1182.16 138.465C1192.51 152.174 1220.52 150.644 1265.6 146.986C1310.7 143.64 1326.52 132.979 1350.87 138.465C1350.87 138.465 1307.33 164.353 1279.3 164.353C1251.58 164.353 1162.97 173.185 1161.14 185.377C1159.61 197.556 1180.33 202.73 1213.53 201.213C1246.73 199.384 1239.73 209.734 1217.19 213.392C1194.33 216.738 1063.69 234.104 1035.97 234.104C1007.95 234.104 887.651 223.754 877.301 253.287C866.951 282.832 880.66 289.835 915.678 293.493C950.398 296.839 1114.25 270.653 1147.45 263.948C1180.34 256.944 1427.63 221.926 1526.93 289.835C1626.2 357.745 1617.37 404.955 1601.83 465.861C1585.99 526.767 1578.98 528.596 1607.02 559.97C1635.03 591.331 1779.37 791.739 1777.86 913.551C1776.03 1035.67 1769.04 1086.23 1797.05 1122.78C1824.77 1159.33 1819.57 1220.23 1814.41 1237.9C1809.24 1255.25 1805.56 1282.67 1843.94 1298.49C1882.32 1314.02 1957.24 1345.41 1984.96 1331.37C2012.97 1317.69 2042.52 1305.51 2049.51 1321.04C2056.53 1336.87 1979.77 1394.12 1955.4 1397.76C1931.06 1401.14 1847.28 1413.32 1800.4 1402.95C1753.49 1392.59 1795.21 1420.31 1798.57 1423.95C1802.21 1427.32 1826.58 1477.85 1842.11 1484.87C1857.94 1491.86 1864.96 1526.59 1864.96 1563.14C1864.96 1599.66 1873.47 1687.09 1873.47 1687.09C1873.47 1687.09 1884.13 1725.17 1896.32 1732.16C1908.5 1739.18 1910.03 1770.54 1908.5 1784.55C1906.67 1798.56 1925.85 1815.94 1938.03 1826.27C1950.21 1836.93 1966.05 1878.66 1960.57 1892.66C1955.39 1906.37 1938.03 1910.04 1941.38 1927.4C1945.05 1944.75 1920.68 1951.77 1908.5 1949.94C1896.32 1948.4 1878.66 1930.74 1896.32 1930.74C1913.68 1930.74 1906.69 1894.2 1892.68 1897.87C1878.67 1901.21 1875.32 1913.39 1864.96 1908.2C1854.3 1903.04 1863.13 1941.42 1847.28 1920.38C1831.76 1899.38 1838.78 1857.66 1847.28 1855.83C1847.28 1855.83 1831.76 1810.73 1819.57 1800.07C1807.39 1789.74 1807.39 1741 1812.58 1714.81C1817.74 1688.61 1790.04 1608.52 1769.04 1598.16C1748.01 1587.53 1720.3 1552.79 1720.3 1552.79C1720.3 1552.79 1741.32 1526.59 1739.48 1511.07C1737.65 1495.23 1727.3 1484.87 1723.64 1505.91C1720.3 1526.61 1676.76 1598.16 1612.18 1638.06C1612.18 1638.06 1516.55 1787.89 1565.27 1843.65C1565.27 1843.65 1577.45 1876.84 1561.62 1889.02C1546.1 1901.2 1544.27 1927.4 1540.92 1936.22C1537.25 1944.75 1514.73 1960.59 1485.17 1960.59C1455.32 1960.59 1382.24 1970.95 1366.71 1976.11C1350.85 1981.3 1322.84 1981.3 1305.48 1936.22C1305.48 1936.22 1350.85 1965.78 1335.33 1927.4C1319.49 1889.02 1312.5 1875.01 1349.04 1880.49C1385.59 1885.67 1387.41 1883.86 1375.24 1871.67C1363.06 1859.48 1335.34 1861.3 1335.34 1861.3C1335.34 1861.3 1319.51 1849.13 1343.88 1842.11C1368.25 1835.12 1335.34 1817.76 1335.34 1817.76C1335.34 1817.76 1324.71 1812.27 1335.34 1791.57C1345.7 1770.54 1340.53 1739.18 1340.53 1739.18C1340.53 1739.18 1335.34 1702.63 1345.69 1671.27C1356.05 1639.88 1352.71 1634.72 1352.71 1634.72C1352.71 1634.72 1349.04 1598.17 1319.49 1641.71C1289.96 1685.28 1293.29 1700.82 1279.29 1707.81C1265.58 1714.82 1251.57 1732.18 1256.74 1741.02C1261.93 1749.56 1236.04 1753.2 1236.04 1739.19C1236.04 1725.19 1194.32 1673.1 1236.04 1685.29C1236.04 1685.29 1236.04 1643.57 1254.93 1653.9C1254.93 1653.9 1260.41 1629.56 1248.22 1618.9C1236.04 1608.54 1237.87 1582.35 1254.93 1561.65C1272.61 1540.63 1333.5 1406.31 1310.67 1378.61C1288.13 1350.59 1282.93 1356.07 1284.78 1371.59C1286.3 1387.45 1268.92 1385.62 1260.41 1376.78C1251.57 1368.25 1210.16 1343.88 1210.16 1328.04C1210.16 1312.51 1192.49 1312.51 1190.97 1322.88C1189.15 1333.24 1168.13 1305.52 1168.13 1305.52C1168.13 1305.52 1155.96 1279.32 1178.8 1281.15C1201.32 1282.67 1208.34 1268.97 1234.53 1263.77C1260.41 1258.61 1310.67 1275.65 1328.32 1291.52C1328.32 1291.52 1368.22 1215.06 1437.96 1225.42C1507.7 1236.08 1485.15 1270.49 1481.5 1279.34C1478.15 1287.85 1448.31 1343.89 1528.72 1336.9C1608.82 1329.88 1556.44 1314.04 1546.07 1314.04C1535.41 1314.04 1486.7 1321.06 1495.52 1298.52C1504.05 1275.67 1504.05 1258.62 1530.25 1262.27C1556.45 1265.33 1582.64 1246.43 1596.64 1282.68C1596.64 1282.68 1607.01 1253.45 1635.02 1265.33C1662.74 1277.5 1676.74 1267.16 1697.43 1281.17C1718.46 1294.88 1744.65 1289.67 1744.65 1289.67C1744.65 1289.67 1765.65 1296.69 1763.84 1319.23C1762.01 1342.06 1751.66 1357.58 1734.3 1354.24C1716.65 1350.59 1702.94 1378.61 1737.65 1378.61C1772.38 1378.61 1774.2 1357.58 1826.58 1374.96C1878.67 1392.62 1948.41 1395.96 1969.43 1378.61C1990.43 1361.25 2030.33 1342.06 2030.33 1342.06C2030.33 1342.06 2042.5 1314.04 2016.32 1329.88C1990.43 1345.43 1950.22 1354.25 1889.31 1336.9C1828.41 1319.25 1803.73 1300.04 1795.2 1300.04C1786.38 1300.04 1779.36 1296.69 1779.36 1281.17C1779.36 1265.33 1753.47 1241.26 1744.65 1236.08C1735.81 1230.91 1706.28 1216.9 1688.92 1216.9C1671.54 1216.9 1587.8 1178.52 1573.79 1161.16C1560.08 1143.8 1525.05 1110.61 1512.9 1047.87C1500.72 985.132 1474.52 965.936 1460.51 950.411C1446.8 934.575 1416.95 913.564 1416.95 850.817C1416.95 788.393 1387.41 757.019 1375.22 744.841C1363.04 732.351 1307.31 627.892 1302.14 615.701C1296.98 603.522 1291.78 559.97 1322.84 593.172C1354.23 626.064 1366.72 640.071 1363.04 659.266C1363.04 659.266 1378.91 669.927 1371.89 687.281C1371.89 687.281 1399.61 709.809 1394.43 727.176C1394.43 727.176 1423.96 760.365 1425.79 770.715C1427.62 781.376 1446.82 784.723 1451.99 772.544C1457.15 760.365 1495.53 760.365 1481.52 748.187C1467.52 736.008 1472.7 720.172 1483.35 734.18C1493.72 748.187 1507.72 779.561 1523.25 767.382C1539.08 755.204 1546.1 736.008 1532.09 736.008C1518.09 736.008 1514.74 725.658 1514.74 714.997C1514.74 704.647 1495.54 688.798 1511.07 671.458C1526.93 654.091 1502.56 629.734 1500.73 612.367C1498.9 595.001 1490.37 587.997 1481.54 584.34C1472.72 580.994 1474.55 565.158 1495.54 552.979C1516.57 540.8 1519.91 530.45 1542.46 538.972C1565.28 547.804 1580.83 538.972 1572.3 532.266C1563.45 525.263 1565.28 520.088 1572.3 507.598C1578.99 495.419 1619.18 389.132 1563.45 331.87C1507.72 274.311 1363.06 256.957 1281.13 262.132C1199.52 267.307 1020.14 298.668 1002.78 298.668C985.417 298.668 905.017 307.5 887.664 298.668C870.297 289.835 856.29 303.843 877.301 310.846C898.312 317.85 1007.96 307.5 1032.32 303.843C1056.69 300.497 1324.69 263.948 1406.62 286.476C1488.54 309.018 1561.62 324.854 1570.47 390.948C1578.98 457.34 1532.09 509.414 1532.09 509.414C1532.09 509.414 1519.91 523.421 1495.54 521.592C1471.17 520.075 1321.33 506.067 1282.96 493.876C1244.9 481.697 1150.79 446.666 1091.7 502.41C1032.32 558.141 926.028 627.879 910.49 640.071C894.654 652.25 842.581 713.467 828.573 751.533C814.566 789.898 800.559 796.914 798.73 819.754C797.2 842.296 746.656 863.307 741.469 919.038C736.281 974.769 729.29 1007.66 722.286 1021.68C715.283 1035.69 701.275 1068.89 715.283 1070.41C729.29 1072.24 729.29 1091.42 717.111 1091.42C704.933 1091.42 696.1 1100.25 708.279 1129.78C720.458 1159.33 678.747 1188.87 676.918 1220.23C659.513 1268.96 685.712 1307.03 675.037 1349.06Z" fill="white"/>
<path fill-rule="evenodd" clip-rule="evenodd" d="M876.964 1073.43C876.964 1073.43 861.128 1131.91 874.837 1160.53C888.844 1189.47 893.721 1232.11 911.684 1243.07C929.66 1254.05 929.66 1257.99 939.4 1248.86C949.452 1240.03 951.28 1248.86 959.192 1255.86C967.103 1262.85 980.203 1263.76 981.111 1271.39C982.032 1279.31 980.203 1284.49 969.231 1284.49C958.258 1284.49 947.299 1293.33 943.343 1286.32C939.387 1279.32 926.586 1265.62 915.626 1277.47C904.654 1289.35 902.838 1314.33 881.827 1303.36C861.115 1292.41 830.35 1293.33 859.908 1273.51C859.908 1273.51 835.24 1251.91 829.144 1247.92C823.36 1243.97 813.308 1244.89 815.435 1219.3C817.264 1193.41 802.336 1171.48 835.227 1147.73C867.82 1123.97 848.015 1127.94 848.015 1119.1C848.028 1109.99 862.956 1052.42 876.964 1073.43Z" fill="white"/>
<path fill-rule="evenodd" clip-rule="evenodd" d="M851.076 1693.49C851.076 1693.49 828.547 1653.89 807.835 1660.91C787.122 1667.63 794.126 1676.43 787.122 1684.97C780.417 1693.48 742.35 1778.17 742.35 1793.69C742.35 1809.22 728.641 1919.77 732.001 1942.31C735.347 1964.85 712.818 2011.44 690.575 2026.97C668.034 2042.49 629.967 2097.61 623.275 2147.87C616.271 2197.83 619.618 2210.01 621.446 2242.89C623.275 2275.79 623.275 2344.62 605.921 2361.98C588.568 2379.33 554.146 2389.69 517.909 2389.69C481.671 2389.69 421.063 2375.98 466.133 2318.73C510.905 2261.78 559.334 2192.66 545.314 2156.41C531.605 2120.15 571.201 2113.46 578.205 2101.28L585.222 2089.1L595.572 2023.62C595.572 2023.62 595.572 1994.09 616.284 1994.09C636.997 1994.09 666.231 1963.01 666.231 1942.31C666.231 1921.59 668.06 1902.72 659.526 1902.72C650.693 1902.72 645.518 1883.53 645.518 1883.53C645.518 1883.53 636.984 1867.98 624.805 1888.7C612.925 1909.4 607.75 1900.87 616.271 1881.98C624.805 1862.8 624.805 1850.92 624.805 1850.92C624.805 1850.92 633.638 1842.07 642.159 1835.08C650.693 1828.36 642.159 1779.96 640.33 1771.42C638.813 1762.6 621.446 1752.24 624.805 1781.79C628.463 1811.02 631.809 1826.54 631.809 1826.54C631.809 1826.54 612.925 1836.91 614.443 1818.04C616.271 1798.84 614.443 1762.62 616.271 1750.74C618.1 1738.56 600.734 1709.01 611.096 1690.12C621.446 1671.25 619.618 1638.34 619.618 1638.34C619.618 1638.34 636.971 1615.83 633.625 1638.34C629.967 1660.88 619.618 1705.64 624.792 1714.49C629.967 1723.02 642.146 1726.37 645.505 1716C649.163 1705.64 631.796 1690.12 645.505 1677.92C659.513 1666.04 649.163 1633.17 649.163 1633.17C649.163 1633.17 655.855 1598.74 664.687 1588.41C673.222 1577.75 673.222 1503.73 669.862 1493.36C666.205 1483.03 666.205 1481.2 680.212 1467.5C693.921 1453.5 685.387 1425.75 702.442 1410.23C719.809 1394.7 714.621 1398.37 712.805 1415.42C711.275 1432.77 711.275 1500.07 745.697 1477.83C780.417 1455.31 811.479 1457.13 813.01 1419.06C814.838 1380.98 821.842 1327.39 837.367 1301.5C837.367 1301.5 845.888 1349.93 859.908 1355.11C873.604 1360.29 904.978 1349.63 927.208 1370.63C949.127 1391.36 995.728 1365.47 991.162 1356.92C986.299 1348.1 973.809 1306.69 1001.51 1329.21C1028.93 1351.75 1041.11 1362.11 1051.46 1362.11C1061.81 1362.11 1075.52 1351.75 1063.64 1348.1C1051.46 1344.73 1056.63 1329.21 1058.46 1317.03C1059.98 1304.85 1077.35 1303.32 1089.54 1292.98C1101.42 1282.62 1113.6 1284.14 1115.43 1273.79C1117.25 1263.74 1136.14 1237.86 1137.97 1265.28C1139.48 1292.99 1146.49 1315.21 1156.85 1324.04C1167.2 1332.58 1174.2 1341.4 1163.85 1353.28C1153.5 1365.46 1175.74 1380.99 1175.74 1405.05C1175.74 1429.42 1180.91 1429.42 1162.03 1425.75C1143.14 1422.41 1129.13 1432.77 1143.14 1450.12C1156.85 1467.5 1155.02 1483.03 1141.31 1489.72C1127.6 1496.74 1123.96 1508.92 1117.25 1536.33C1110.25 1564.05 1098.07 1600.27 1103.23 1614.31C1108.42 1628.02 1123.95 1652.05 1136.14 1652.05C1148.32 1652.05 1151.66 1666.06 1155.02 1684.95C1158.68 1703.83 1186.09 1712.67 1189.74 1733.36C1193.09 1754.08 1224.16 1778.14 1205.28 1776.62C1186.1 1774.77 1182.74 1790.33 1182.74 1809.2C1182.74 1828.39 1191.27 1862.81 1191.27 1862.81C1191.27 1862.81 1198.28 1887.18 1187.91 1906.05C1177.56 1924.95 1169.03 1959.65 1172.39 1980.37C1175.74 2001.07 1137.98 2035.49 1123.97 2035.49C1110.26 2035.49 1103.26 2021.78 1129.15 2016.59C1155.04 2011.43 1155.04 1987.36 1132.79 1985.53C1110.26 1983.7 1091.07 1978.54 1091.07 2001.05C1091.07 2023.59 1091.07 2039.13 1065.18 2033.96C1039.29 2028.77 1042.34 2019.34 1042.95 2004.43C1043.25 1989.78 1057.27 1956.9 1061.83 1947.45C1066.71 1938.02 1075.54 1914.57 1084.38 1906.04C1092.9 1897.53 1120.61 1843.92 1120.61 1843.92C1120.61 1843.92 1146.5 1785.13 1122.44 1805.85C1098.09 1826.55 1053.31 1864.61 1049.66 1883.51C1046.31 1902.69 1022.24 1968.16 1022.24 1990.69C1022.24 2013.23 999.697 2023.59 999.697 2061.36C999.697 2099.44 987.518 2187.44 1001.53 2209.98C1015.23 2232.52 992.693 2258.39 982.343 2261.76C971.98 2265.4 925.393 2301.65 902.851 2299.81C880.621 2297.98 870.258 2291.3 873.617 2275.77C876.977 2260.23 863.268 2251.4 858.093 2266.92C852.918 2282.45 828.547 2282.45 833.735 2253.21C838.91 2223.68 863.268 2142.67 897.689 2104.59C932.409 2066.51 904.693 2059.83 935.756 2061.35C935.756 2061.35 954.64 2023.58 937.584 2018.41C920.231 2013.22 922.06 2001.03 922.06 1985.5C922.06 1969.98 904.693 1949.25 916.885 1921.54C928.765 1893.82 961.656 1843.9 951.293 1814.33C940.943 1785.09 909.881 1778.1 909.881 1778.1C890.997 1778.1 868.468 1764.39 868.468 1741.85C868.43 1719.69 838.897 1714.51 851.076 1693.49Z" fill="white"/>
<path fill-rule="evenodd" clip-rule="evenodd" d="M1089.54 1959.37C1089.54 1959.37 1068.22 1946.88 1088.01 1928.31C1107.8 1910.04 1131.86 1861.91 1133.39 1855.51C1134.92 1849.13 1151.05 1834.2 1151.05 1854.9C1151.05 1875.31 1148.91 1926.18 1151.05 1937.42C1151.05 1937.42 1134 1940.48 1127.59 1951.76C1121.52 1963.03 1099.59 1969.43 1089.54 1959.37ZM1057.87 1988.6C1058.48 1985.26 1062.74 1982.52 1066.09 1982.83C1069.14 1983.13 1072.48 1987.08 1071.87 1989.82C1070.65 1994.71 1066.7 2001.09 1061.82 2000.48C1057.87 2000.18 1056.65 1992.58 1057.87 1988.6ZM921.424 2255.39C926.897 2255.39 931.476 2259.98 931.476 2265.44C931.476 2270.9 926.897 2275.49 921.424 2275.49C915.938 2275.49 911.671 2270.9 911.671 2265.44C911.671 2259.98 915.951 2255.39 921.424 2255.39ZM866.912 2213.07C873.008 2213.07 877.871 2215.81 877.871 2219.45C877.871 2222.82 873.008 2225.56 866.912 2225.56C860.505 2225.56 855.641 2222.82 855.641 2219.45C855.641 2215.81 860.518 2213.07 866.912 2213.07ZM939.089 1919.47C939.089 1919.47 971.371 1879.58 979.892 1914.61C988.724 1949.32 968.932 1996.53 961.319 2001.7C954.017 2006.59 939.089 2013.88 939.089 1991.68C939.089 1969.12 935.133 1934.39 939.089 1919.47ZM912.903 2112.24C912.903 2112.24 932.695 2083.62 945.185 2109.8C957.674 2136 970.164 2143.32 970.164 2159.76C970.164 2175.9 979.905 2203.3 960.113 2204.52C940.321 2205.74 918.999 2226.77 905.29 2224.33C891.581 2221.89 879.091 2195.7 879.091 2195.7C879.091 2195.7 864.163 2188.39 885.485 2165.83C906.509 2143.33 885.485 2127.2 912.903 2112.24ZM612.912 1921.3C612.912 1921.3 608.645 1956.33 612.912 1967.92C617.179 1979.8 593.12 1995.02 590.98 1974C588.853 1952.69 598.295 1934.39 612.912 1921.3ZM522.461 2360.17C527.934 2360.17 532.201 2363.52 532.201 2367.46C532.201 2371.13 527.934 2374.48 522.461 2374.48C517.286 2374.48 512.721 2371.13 512.721 2367.46C512.721 2363.51 517.286 2360.17 522.461 2360.17ZM491.1 2347.68C491.1 2347.68 478.61 2365.33 470.997 2359.27C463.384 2353.47 455.771 2341 470.089 2330.03C484.408 2319.06 537.091 2238.05 541.358 2231.34C545.625 2224.65 581.564 2217.03 584.91 2245.35C588.257 2274 577.297 2295 550.489 2296.52C523.68 2298.33 498.713 2302.31 491.1 2347.68ZM1484.83 1551.59C1484.22 1547.63 1490.33 1542.74 1493.68 1544.27C1499.47 1546.4 1503.13 1552.81 1504.04 1558.59C1504.34 1561.35 1498.88 1562.57 1496.11 1561.65C1491.55 1559.8 1485.47 1556.45 1484.83 1551.59ZM1425.45 1610.96C1419.68 1611.57 1419.37 1597.25 1423.63 1593C1428.19 1587.84 1443.11 1584.46 1444.01 1591.17C1444.94 1600.02 1434.6 1610.05 1425.45 1610.96ZM1408.41 1554.32C1403.22 1552.2 1402.62 1541.53 1406.58 1537.58C1411.45 1532.99 1420.59 1534.84 1426.36 1537.58C1429.71 1539.1 1431.52 1545.48 1428.8 1547.94C1423.64 1552.81 1415.09 1557.36 1408.41 1554.32ZM1624.04 1342.34C1613.37 1341.44 1613.37 1328.64 1624.04 1328.95C1644.42 1329.56 1667.89 1332.01 1686.76 1341.44C1703.23 1349.97 1691.94 1373.43 1679.77 1360.63C1663.93 1344.2 1642.59 1344.47 1624.04 1342.34ZM1807.96 1522.35C1807.96 1522.35 1823.21 1532.99 1831.11 1532.99C1838.74 1532.99 1843.6 1551.27 1831.11 1551.27C1818.32 1551.27 1796.4 1540.61 1796.4 1534.83C1796.42 1529.04 1798.23 1504.06 1807.96 1522.35ZM1747.38 1450.16C1747.38 1450.16 1734.89 1466.63 1734.89 1450.16C1734.89 1434.03 1737.62 1402.06 1751.02 1402.06C1764.73 1402.06 1766.55 1405.09 1777.22 1426.12C1787.58 1447.43 1802.2 1469.36 1822.32 1479.09C1842.41 1488.84 1805.85 1508.03 1799.17 1495.56C1792.45 1483.07 1768.39 1452.29 1763.52 1447.43C1758.95 1442.56 1748.29 1434.94 1747.38 1450.16Z" fill="white"/>
</g>
<defs>
<clipPath id="clip0_1_3">
<rect width="2500" height="2500" fill="white"/>
</clipPath>
</defs>
</svg>
