<svg width="2500" height="1571" viewBox="0 0 2500 1571" fill="none" xmlns="http://www.w3.org/2000/svg">
<g clip-path="url(#clip0_1_1063)">
<path d="M1604.11 1443.86H1697.13V1465.39H1604.11V1443.86ZM56.8496 1313.25L48.5348 1529.39V1533.15C48.5348 1551.44 53.9238 1555.22 83.0955 1557.29V1567.3C61.8621 1565.66 53.5043 1565.25 41.8657 1565.25C30.1949 1565.25 21.8694 1565.66 0.216492 1567.3V1557.29C29.3559 1555.22 33.5402 1551.87 34.3684 1529.39L43.1135 1324.93V1322.47C43.1135 1303.28 37.2727 1299.13 8.56355 1297.47V1287.04C24.7736 1288.3 31.0232 1288.72 42.694 1288.72C55.9145 1288.84 69.1301 1288.15 82.2672 1286.66L159.693 1497.34L238.377 1286.66C257.147 1288.3 265.881 1288.72 278.38 1288.72C288.749 1288.72 295.44 1288.3 311.252 1287.04V1297.47C282.952 1299.13 276.67 1303.28 276.67 1322.02V1324.93L281.263 1529.39C281.715 1551.87 285.436 1555.19 315.425 1557.29V1567.3C289.201 1564.8 279.187 1563.94 263.375 1563.94C247.53 1563.94 237.538 1564.76 211.313 1567.3V1557.29C239.614 1555.64 245.863 1551.04 245.863 1531.5V1529.45L242.152 1313.73L173.418 1499.43L168.438 1513.18L162.608 1528.57L157.165 1544.44L152.593 1558.17H146.344L141.783 1544.85L135.931 1528.57L130.112 1512.34L125.11 1497.78L56.8496 1313.25ZM369.509 1447.75C373.683 1399.87 389.484 1375.34 416.139 1375.34C443.213 1375.34 456.949 1398.65 459.434 1447.75H369.509ZM423.657 1556.84C385.762 1556.84 369.079 1527.69 368.702 1462.74H492.79C491.94 1398.62 465.705 1364.46 416.558 1364.46C366.626 1364.46 335.379 1404.87 335.379 1469C335.379 1533.12 366.637 1570.58 420.323 1570.58C461.133 1570.58 487.799 1545.16 493.177 1502.29H476.504C471.513 1537.68 453.195 1556.84 423.657 1556.84ZM517.562 1379.87V1372.39C541.28 1370.32 555.457 1367.82 572.517 1362.81C574.604 1378.23 575.432 1384.87 576.26 1397.38V1401.97C585.446 1378.23 603.313 1364.47 624.987 1364.47C645.79 1364.47 661.215 1378.23 661.215 1398.24C661.215 1410.32 654.137 1418.21 643.725 1418.21C634.152 1418.21 626.665 1412.37 626.665 1404.07C626.665 1403.24 627.096 1401.61 627.472 1399.87L628.3 1395.73V1391.95C628.3 1386.12 623.298 1381.96 615.801 1381.96C594.181 1381.96 580.444 1408.19 580.444 1449.42V1536.43C580.444 1554.37 584.586 1557.69 610.003 1558.93V1567.27C587.071 1565.21 578.336 1564.75 563.761 1564.75C548.777 1564.75 540.043 1565.21 517.153 1567.27V1558.93C542.528 1557.69 547.11 1554.37 547.11 1536.43V1400.32C546.712 1382.4 544.604 1380.34 522.983 1379.9L517.562 1379.87ZM820.508 1360.75V1429.48H811.322C803.825 1393.22 788.432 1375.74 763.047 1375.74C731.789 1375.74 713.492 1409.49 713.492 1469.03C713.492 1527.31 729.723 1556.88 761.778 1556.88C787.594 1556.88 802.997 1538.57 807.999 1501.94H825.059C819.637 1546.51 795.908 1570.64 758.454 1570.64C710.147 1570.64 677.275 1529.82 677.275 1469.06C677.275 1406.98 710.566 1364.53 759.702 1364.53C777.611 1364.53 788.852 1369.12 802.201 1382.03L813.409 1360.79H820.519L820.508 1360.75ZM888.877 1447.75C893.04 1399.87 908.841 1375.34 935.506 1375.34C962.57 1375.34 976.306 1398.65 978.78 1447.75H888.877ZM943.004 1556.84C905.108 1556.84 888.468 1527.69 888.049 1462.74H1012.11C1011.29 1398.62 985.029 1364.46 935.937 1364.46C885.94 1364.46 854.703 1404.87 854.703 1469C854.703 1533.12 885.93 1570.58 939.68 1570.58C980.479 1570.58 1007.13 1545.16 1012.52 1502.29H995.872C990.881 1537.68 972.563 1556.84 943.004 1556.84ZM1127.42 1559.37C1097.45 1559.37 1081.63 1528.11 1081.63 1468.61C1081.63 1408.26 1096.2 1378.68 1126.19 1378.68C1157.02 1378.68 1172.84 1410.32 1172.84 1471.57C1172.83 1529.38 1157.41 1559.37 1127.42 1559.37ZM1205.7 1523.95V1283.56C1184.89 1289.14 1166.17 1292.44 1142.86 1294.93V1302.03C1169.08 1302.03 1172.42 1304.95 1172.42 1326.59V1399.44C1157.02 1374.48 1144.94 1366.96 1122.44 1366.96C1077.9 1366.96 1046.65 1409.01 1046.65 1468.96C1046.65 1528.93 1078.28 1570.95 1123.69 1570.95C1147.42 1570.95 1163.66 1560.13 1175.31 1536.83C1176.97 1552.65 1176.97 1554.31 1181.15 1570.11C1198.2 1564.69 1205.3 1563.03 1229.87 1560.13L1236.11 1559.31V1552.23C1208.21 1551.4 1205.7 1549.35 1205.7 1523.95ZM1286.04 1447.75C1290.2 1399.87 1306.01 1375.34 1332.68 1375.34C1359.74 1375.34 1373.46 1398.65 1375.95 1447.75H1286.04ZM1340.18 1556.84C1302.26 1556.84 1285.64 1527.69 1285.2 1462.74H1409.28C1408.44 1398.62 1382.21 1364.46 1333.1 1364.46C1283.1 1364.46 1251.89 1404.87 1251.89 1469C1251.89 1533.12 1283.1 1570.58 1336.84 1570.58C1377.64 1570.58 1404.29 1545.16 1409.67 1502.29H1393.01C1388.05 1537.68 1369.7 1556.84 1340.18 1556.84ZM1444.63 1571.01V1501.45L1453.8 1501.05C1461.27 1538.96 1478.77 1557.29 1507.94 1557.29C1532.47 1557.29 1550.81 1541.03 1550.81 1519.84C1550.81 1505.69 1542.92 1496.12 1522.48 1486.94L1506.67 1479.84L1487.52 1471.1C1457.09 1456.96 1447.53 1445.29 1447.53 1421.13C1447.53 1388.23 1473.32 1365.78 1509.99 1365.78C1526.23 1365.78 1538.33 1369.52 1552.47 1379.05L1559.52 1361.99H1567.02V1426.53H1557.43C1553.65 1393.21 1539.94 1377.42 1513.72 1377.42C1491.66 1377.42 1474.55 1392.41 1474.55 1411.98C1474.55 1428.62 1480.8 1434.06 1518.69 1450.7L1536.19 1458.22C1567.81 1471.91 1579.09 1485.27 1579.09 1509.85C1579.09 1544.83 1551.18 1569.77 1512.08 1569.77C1492.91 1569.77 1477.91 1564.77 1462.1 1552.29L1452.07 1571.01H1444.63ZM1810.66 1427.35C1832.71 1427.35 1845.2 1431.11 1854.79 1440.66C1864.37 1450.28 1869.81 1468.17 1869.81 1488.12C1869.81 1529.76 1848.96 1553.1 1811.91 1553.1H1796.93C1774.85 1553.1 1771.12 1549.75 1771.12 1531.43V1427.31L1810.66 1427.35ZM1771.08 1301.17H1806.48C1841.46 1301.17 1856.86 1318.28 1856.86 1356.98C1856.86 1376.12 1852.28 1389.89 1843.13 1400.68C1833.97 1411.13 1822.74 1414.42 1799.44 1414.42H1771.12V1301.16H1771.08V1301.17ZM1893.9 1356.14C1893.9 1334.49 1884.76 1315.36 1868.92 1303.25C1854.79 1292.85 1838.57 1288.29 1811.46 1288.29H1701.96V1298.69C1731.96 1300.37 1736.1 1303.69 1736.1 1326.17V1528.1C1736.1 1550.59 1732.75 1553.48 1701.96 1556.02V1566.03H1807.3C1838.1 1566.03 1854.78 1562.25 1872.28 1551.43C1893.08 1538.12 1906.82 1512.71 1906.82 1486.53C1906.82 1463.99 1897.24 1443.61 1881 1431.17C1872.28 1424.51 1863.11 1420.71 1848.1 1417.83C1878.11 1406.53 1893.9 1385.29 1893.9 1356.14ZM1974.79 1447.75C1978.97 1399.87 1994.79 1375.34 2021.45 1375.34C2048.49 1375.34 2062.25 1398.65 2064.73 1447.75H1974.79ZM2028.95 1556.84C1991.05 1556.84 1974.37 1527.69 1973.97 1462.74H2098.07C2097.23 1398.62 2070.99 1364.46 2021.85 1364.46C1971.89 1364.46 1940.65 1404.87 1940.65 1469C1940.65 1533.12 1971.89 1570.58 2025.58 1570.58C2066.38 1570.58 2093.04 1545.16 2098.45 1502.29H2081.79C2076.83 1537.68 2058.51 1556.84 2028.95 1556.84ZM2120.09 1381.52V1374.48C2144.25 1371.12 2158.4 1367.82 2175.03 1361.98C2177.14 1371.6 2178.4 1382.38 2179.21 1398.21C2194.21 1375.7 2211.26 1365.74 2235.43 1365.74C2260.43 1365.74 2282.05 1378.6 2290.41 1399.02C2294.59 1409.04 2296.67 1420.68 2296.67 1436.48V1536.42C2296.67 1554.34 2300.83 1557.66 2326.21 1558.9V1567.24C2304.14 1565.14 2295.83 1564.74 2280.83 1564.74C2265.4 1564.74 2257.09 1565.14 2235.42 1567.24V1558.9C2257.9 1558.1 2263.32 1553.92 2263.32 1537.27V1435.24C2263.32 1399.02 2252.5 1384.43 2225.87 1384.43C2197.53 1384.43 2182.55 1402.36 2182.55 1436.48V1537.27C2182.55 1553.92 2188 1558.1 2209.66 1558.9V1567.24C2188 1565.14 2179.68 1564.74 2164.67 1564.74C2150.1 1564.74 2141.33 1565.14 2119.69 1567.24V1558.9C2145.07 1557.66 2149.25 1554.34 2149.25 1536.42V1401.54C2148.83 1384.43 2146.34 1381.96 2125.53 1381.96C2124.24 1381.96 2122.19 1381.52 2120.09 1381.52ZM2342.38 1566.03L2455.22 1380.31H2404C2376.95 1380.31 2370.25 1386.12 2355.28 1423.6H2346.99L2356.57 1369.48H2499.81L2386.54 1555.19H2435.23C2463.58 1555.19 2475.22 1543.97 2487.71 1506.05H2496.46L2485.65 1566.03H2342.38Z" fill="white"/>
<path d="M1759.4 899.492C1814.87 807.246 1844.11 701.605 1843.96 593.964C1843.96 265.923 1578.01 0 1249.98 0C921.942 0 656.02 265.933 656.02 593.964C655.867 701.608 685.112 807.25 740.598 899.492L738.436 901.224L741.018 900.224C844.98 1072.61 1034 1187.93 1249.98 1187.93C1465.97 1187.93 1654.98 1072.61 1758.93 900.224L1761.51 901.224L1759.4 899.492ZM1770.99 593.964C1771.09 684.925 1747.24 774.309 1701.84 853.132L1334.4 557.188L1259.04 73.2304C1542.57 78.0708 1770.99 309.271 1770.99 593.964ZM729.046 593.964C729.046 309.282 957.439 78.0816 1240.97 73.2304L1165.61 557.188L798.167 853.132C752.784 774.304 728.945 684.922 729.046 593.964ZM1250.01 1114.92C1065.14 1114.92 902.882 1018.55 810.419 873.386L1250.01 703.326L1689.59 873.397C1597.12 1018.55 1434.89 1114.92 1250.01 1114.92Z" fill="white"/>
</g>
<defs>
<clipPath id="clip0_1_1063">
<rect width="2500" height="1571" fill="white"/>
</clipPath>
</defs>
</svg>
