<svg width="2500" height="2500" viewBox="0 0 2500 2500" fill="none" xmlns="http://www.w3.org/2000/svg">
<g clip-path="url(#clip0_1_18)">
<path fill-rule="evenodd" clip-rule="evenodd" d="M1788.61 2099.27C1645.81 2229.55 1522.88 2299.77 1263.92 2435.8C1022.86 2326.01 865.524 2217.79 729.082 2111.21C540.528 1964.21 405.085 1725.51 393.334 1579.12L299.264 185.792C936.534 19.9086 1614.37 23.6828 2200.72 196.933L2105.28 1576.15C2093.13 1701.06 1981.53 1943.92 1788.61 2099.27ZM1996.1 1530.46L2082.23 298.836C1577.6 137.921 973.16 135.534 416.239 281.924L504.148 1529.67C513.304 1659.34 606.583 1857.66 785.397 2009.63C893.007 2101.13 1103.84 2254.69 1259.56 2313.56C1438.98 2222.67 1602.06 2109.69 1731.36 1998.11C1891.67 1851.89 1986.35 1670.09 1996.1 1530.46ZM1710.66 1965.58C1586.73 2072.61 1419.88 2192.55 1259.56 2269.13C1116.36 2224.77 904.732 2061.26 802.893 1973.35C625.272 1819.79 553.07 1659.09 542.136 1507.1L455.809 316.06C986.078 176.635 1564.88 176.635 2045.8 329.977L1960.48 1505.12C1948.15 1661.45 1875.54 1810.83 1710.66 1965.58ZM495.445 339.211L512.552 544.484C1018.75 417.782 1549.03 430.518 1989.19 563.783L2008.08 354.931C1551.99 214.896 998.27 207.335 495.445 339.211ZM1754.24 415.396L1640.07 396.499L1635.68 450.207L1598.5 444.63L1607.24 302.221L1645.24 307.798L1641.26 362.492L1757.03 381.181L1760.8 326.488L1799.58 333.842L1787.86 476.652L1750.06 469.7L1754.24 415.396ZM1203.24 367.07C1189.31 367.07 1178.17 363.296 1170.82 350.962C1164.46 340.819 1164.46 307.798 1170.82 296.865C1177.78 284.142 1190.31 280.562 1200.66 280.562L1362.56 280.757L1362.94 315.762L1209.81 315.554C1202.25 315.554 1202.05 332.467 1210.4 332.467H1331.13C1345.26 332.467 1357.78 341.014 1361.75 352.155C1366.13 364.087 1365.34 391.142 1361.75 402.283C1358.38 413.424 1345.64 419.585 1329.73 419.585H1170.03L1169.82 383.775H1312.02C1314.12 383.61 1316.08 382.658 1317.52 381.11C1318.95 379.561 1319.74 377.531 1319.74 375.423C1319.74 373.315 1318.95 371.284 1317.52 369.736C1316.08 368.188 1314.12 367.236 1312.02 367.07H1203.24ZM1109.58 381.298C1109.54 379.517 1109.15 377.76 1108.43 376.13C1107.71 374.501 1106.67 373.032 1105.38 371.81C1104.08 370.587 1102.55 369.636 1100.89 369.011C1099.22 368.387 1097.44 368.102 1095.66 368.173L988.244 375.929L990.423 429.234L955.612 432.814L948.246 292.196L1108.18 280.251C1128.86 278.668 1140.99 294.18 1141.97 307.111C1143.17 322.428 1143.76 342.116 1131.82 350.274C1141.78 357.628 1144.36 368.575 1144.56 383.892L1144.96 419.896L1110.15 421.284L1109.58 381.298ZM1086.76 335.658C1100.48 334.866 1099.29 313.57 1086.76 314.776L984.522 322.532L985.715 342.026L1086.76 335.658ZM751.831 316.981C784.645 309.225 851.867 298.486 887.08 295.892C903.189 294.712 915.717 303.065 917.909 315.593C923.084 344.438 926.275 374.269 922.695 414.254C921.696 425.784 911.749 434.941 898.623 437.73C853.488 447.677 802.751 453.047 765.151 456.627C755.606 457.625 740.496 450.064 737.902 438.132C731.339 409.079 728.953 368.51 730.937 340.664C731.741 330.301 741.287 319.368 751.831 316.981ZM879.584 402.633C884.149 401.648 886.146 396.667 886.548 393.088C888.144 382.141 886.743 353.504 884.149 343.945C883.358 340.171 880.18 337.785 873.021 338.381C853.527 339.574 801.998 346.941 776.552 352.505C769.795 354.101 767.201 358.069 766.811 361.649C765.618 371 768.394 396.654 770.793 410.986C771.39 414.371 775.774 416.745 779.146 416.563C813.542 413.774 854.124 408.21 879.584 402.633ZM1443.63 322.908C1436.05 322.701 1430.89 327.279 1430.31 331.261C1428.5 342.998 1427.89 358.108 1427.89 377.809C1427.89 380.39 1432.28 387.55 1436.05 388.146C1470.28 392.919 1536.7 398.898 1572.9 401.285L1570.72 438.08C1523.17 435.901 1473.44 428.339 1421.94 424.747C1405.04 423.554 1392.71 414.41 1392.1 398.107C1391.11 371.247 1392.71 330.664 1397.47 307.007C1400.66 292.481 1414.56 284.933 1430.29 285.322C1477.81 287.112 1515.61 291.288 1577.88 299.641L1575.49 336.254C1545.26 333.647 1487.98 324.698 1443.63 322.908ZM665.284 333.582C713.415 322.247 720.769 407.769 680.588 417.717L568.413 445.771L573.782 501.061L538.583 510.425L526.054 366.396L665.284 333.582ZM664.701 389.599C676.231 387.018 674.648 366.344 662.301 368.925L561.059 393.386L563.459 414.682L664.701 389.599ZM1855 436.718L1852.61 459.791L1963.79 487.832L1960.81 520.062L1811.63 484.862L1824.57 339.847L1974.74 376.253L1971.37 410.065L1859.58 383.01L1857.4 407.484L1968.38 434.526L1965.59 463.163L1855 436.718ZM779.055 849.429C763.543 870.116 749.224 901.943 742.467 928.985C740.068 938.142 740.068 941.514 741.676 947.48C756.384 940.918 775.488 934.549 786.616 930.97C791 921.242 793.374 910.088 797.161 901.139C803.114 887.223 806.901 881.244 813.075 871.503C830.778 844.059 868.17 817.004 895.809 817.601C886.652 825.551 867.561 845.447 860.012 857.379C853.852 867.327 848.08 878.066 843.696 889.207C839.922 899.168 838.729 906.509 837.73 914.667C852.049 910.49 866.173 907.507 875.317 906.911C881.49 903.526 883.474 896.95 886.86 890.789C897.391 871.101 918.078 849.014 931.216 841.867C941.748 836.096 957.272 830.532 968.401 834.111C956.468 843.061 943.94 857.379 938.376 865.939C932.604 875.083 923.253 892.8 923.655 901.139C933.408 901.943 947.325 901.139 952.902 899.752L952.292 872.294L1238.11 872.087L1237.91 481.036C1015.53 481.036 771.883 502.124 513.512 574.327L566.818 1308.87H952.085V1165.29C936.573 1153.76 864.565 1145.4 820.221 1162.7C809.482 1166.88 774.477 1182 758.563 1194.52L713.817 1229.94C709.433 1233.52 709.044 1241.27 709.044 1247.22C709.044 1260.35 693.727 1270.3 685.18 1267.51C678.215 1265.12 668.669 1263.74 659.915 1265.73C650.563 1267.7 642.224 1255.95 641.42 1249.22C640.227 1240.86 646.802 1229.94 647.191 1226.34C647.593 1222.96 645.402 1209.63 657.723 1201.48C663.287 1197.91 671.043 1198.1 676.62 1201.09C678.241 1202.04 680.162 1202.32 681.989 1201.9C683.987 1201.09 689.356 1196.33 690.744 1195.14C691.34 1187.19 690.147 1174.65 690.951 1167.69C692.741 1154.17 693.532 1146.41 697.709 1133.27C701.288 1121.94 709.044 1105.44 714.803 1096.07C725.153 1079.18 745.632 1062.86 760.962 1064.25C754.983 1072.21 752.999 1076.39 748.628 1084.54C740.47 1099.46 732.909 1124.13 729.342 1140.83C726.942 1151.57 725.762 1159.94 726.359 1171.26C738.096 1162.52 750.418 1155.35 758.576 1150.78C762.35 1131.08 770.119 1109.81 778.458 1094.1C788.406 1075.19 815.254 1054.7 832.776 1056.3C816.265 1074.19 804.515 1099.06 800.144 1114.97C798.354 1121.33 796.162 1128.71 797.174 1132.68C803.723 1129.1 817.264 1125.52 823.814 1124.92C828.197 1113.99 834.163 1100.85 839.144 1093.09C854.656 1069.21 879.117 1054.7 893.046 1055.3C882.1 1070.02 872.748 1083.34 865.991 1103.04C863.994 1108.8 863.008 1114.97 863.008 1117.95C871.555 1116.57 884.888 1116.57 890.258 1116.57C900.206 1107.62 907.352 1096.87 919.297 1087.72C929.245 1079.95 947.74 1069.42 952.111 1068.62V947.882C952.111 945.288 920.49 942.915 904.771 944.899C863.008 949.88 758.589 982.693 714.427 1013.13C713.428 1015.73 713.635 1030.24 710.639 1037C708.058 1043.16 701.496 1049.53 695.141 1052.31C683.805 1057.3 670.667 1042.17 664.895 1044.36C658.929 1046.56 646.206 1051.72 632.471 1041.98C626.31 1037.61 623.132 1025.26 625.311 1016.13C627.309 1009.55 632.873 1004.39 637.244 1000.22C641.225 996.234 638.437 980.916 652.742 971.773C662.703 965.404 676.412 970.579 686.97 976.143C689.116 975.461 691.083 974.309 692.728 972.771C694.116 968.582 696.308 955.859 698.305 945.911C700.692 935.159 701.496 928.207 704.673 918.272C712.637 894.213 731.715 859.597 751.624 841.491C767.33 827.562 791.791 816.434 809.897 817.627C808.094 820.377 785.631 840.48 779.055 849.429ZM825.033 613.976C840.155 592.9 879.934 561.072 910.568 562.875C893.85 577.388 879.13 593.496 868.793 610.604C855.278 632.691 844.332 660.33 841.945 681.626C852.088 677.839 875.952 671.082 889.674 668.099C901.814 641.64 917.728 612.406 937.429 596.687C951.54 585.351 971.825 575.611 990.734 577.79C986.351 583.964 979.191 588.737 973.822 593.704C964.082 602.251 957.324 613.794 951.942 625.532C947.96 634.273 941.203 660.537 940.995 661.73C954.717 661.536 978.984 663.118 984.159 664.713C1000.28 643.625 1035.49 612.99 1077.64 619.955C1059.34 629.89 1025.93 658.916 1027.93 674.843C1055.38 692.56 1096.35 729.744 1098.14 764.166C1079.45 744.672 1048.62 725.373 1033.09 720.004C995.896 706.878 951.54 705.088 914.55 711.846C837.38 726.372 769.159 759.782 703.727 798.976C702.144 809.508 696.36 825.422 691.587 830.804C686.814 836.174 679.655 841.336 671.899 842.529C662.158 844.124 652.198 840.142 643.858 835.772C638.476 832.789 624.365 836.576 615.415 831.79C609.255 828.599 599.696 819.65 602.29 805.539C604.469 793.01 616.998 785.449 618.788 773.517C621.369 756.008 634.105 748.446 640.668 747.266C647.827 745.878 655.194 748.265 661.743 751.248C664.532 752.635 667.502 755.022 670.109 755.826C672.69 755.022 676.464 751.844 678.656 750.859C679.253 748.861 685.828 712.468 689.395 696.554C692.975 680.64 699.135 667.1 704.31 652.198C719.835 608.049 767.758 563.484 806.162 565.871C804.164 568.659 791.83 577.608 774.723 597.504C747.084 629.916 740.12 664.337 729.77 723.415C751.053 713.467 769.548 706.307 788.847 699.343C793.448 681.031 799.57 663.136 807.147 645.842C812.115 634.662 818.081 623.729 825.033 613.976ZM1984.22 662.885L1273.37 663.494L1273.98 872.735L1968.32 872.333L1984.22 662.885ZM1354.99 1746.26C1346.83 1750.44 1336.7 1747.86 1332.53 1746.05C1325.35 1743.07 1320.59 1735.69 1319.98 1727.16C1319.4 1720.4 1325.96 1712.24 1327.35 1704.86C1327.94 1701.88 1324.77 1687.18 1337.29 1679.61C1339.7 1678.22 1346.83 1675.63 1351.8 1676.45C1356.79 1677.43 1360.76 1680.62 1365.73 1681.41C1372.49 1679.02 1378.96 1675.88 1385.03 1672.06C1389.01 1656.73 1391.99 1639.05 1393.96 1623.32C1358.38 1641.03 1311.81 1652.96 1272.24 1654.55L1272.45 2226.82C1438.53 2142.46 1620.71 2004.44 1698.27 1928.64C1823.8 1806.31 1908.32 1682.4 1921.24 1503.78L1932.96 1341.07L1555.67 1340.67C1555.67 1432.95 1524.84 1529.24 1436.71 1598.85C1431.75 1618.94 1429.37 1652.75 1429.75 1653.57C1441.89 1648.57 1453.24 1644.22 1463.18 1641.23C1463.98 1640.04 1478.1 1609.21 1484.47 1600.86C1499.38 1577.78 1519.47 1558.07 1543.92 1544.95C1559.25 1537.19 1577.94 1530.03 1594.45 1536.2C1572.77 1546.54 1555.84 1565.23 1545.71 1575.97C1536.36 1585.93 1525.43 1600.64 1520.46 1615.76C1519.78 1618.38 1519.25 1621.03 1518.86 1623.71C1529.02 1620.52 1561.42 1615.76 1574.94 1613.96C1576.54 1613.75 1580.72 1604.81 1583.91 1600.43C1587.86 1595.06 1590.26 1591.69 1596.62 1584.52C1612.93 1566.81 1640.57 1547.92 1667.42 1552.09C1652.72 1561.44 1636.59 1576.36 1623.67 1599.82C1621.87 1603.41 1619.5 1608.38 1620.48 1610.56C1624.46 1611.36 1644.16 1610.96 1656.1 1612.36C1669.81 1603.83 1684.34 1596.25 1700.05 1592.88C1717.75 1588.9 1740.84 1592.08 1749.98 1600.43C1739.25 1599.82 1729.09 1601.82 1719.36 1605.59C1713.79 1607.8 1702.64 1612.96 1698.47 1620.11C1709 1623.09 1726.33 1634.44 1737.25 1643.59C1744.82 1649.95 1753.97 1659.12 1759.74 1667.46C1774.25 1687.17 1777.25 1722.55 1769.46 1733.11C1767.29 1726.92 1764.9 1720.78 1761.51 1715C1754.55 1703.28 1743.6 1690.53 1734.25 1683.57C1689.12 1649.17 1624.09 1647.37 1570.96 1658.11C1525.41 1667.46 1443.26 1684.58 1389.57 1722.75C1390.96 1729.51 1386.78 1740.85 1380.63 1745.21C1372.49 1751.22 1360.97 1743.07 1354.99 1746.26ZM1443.63 1810.58C1449.58 1801.44 1456.75 1788.12 1460.32 1782.33C1472.86 1762.24 1490.97 1747.33 1503.27 1741.54C1520.2 1733.38 1547.42 1728.62 1559.56 1734.58C1546.24 1737.77 1536.1 1743.93 1526.76 1750.49C1517.22 1757.08 1498.49 1774.17 1493.73 1781.35C1488.36 1789.3 1484.79 1796.44 1483.39 1800.24C1498.49 1796.84 1516.61 1794.06 1525.94 1794.06C1532.7 1785.5 1550.61 1765.03 1563.95 1755.47C1574.69 1747.9 1597.56 1740.35 1611.87 1746.51C1598.16 1750.89 1573.89 1770 1564.93 1783.72C1562.96 1786.88 1561.16 1790.28 1560.76 1792.06C1568.12 1792.67 1582.04 1794.06 1589.61 1795.04C1590.4 1795.04 1611.09 1782.33 1620.44 1779.74C1632.58 1776.34 1652.46 1771.98 1665.01 1785.31C1655.86 1785.5 1647.3 1786.3 1640.53 1789.3C1630.78 1793.65 1626.6 1796.84 1622.25 1803C1641.32 1813.16 1661.23 1823.7 1672.96 1842.39C1677.13 1848.96 1683.49 1864.48 1679.92 1874.61C1673.94 1867.06 1665.78 1859.7 1659.22 1855.92C1649.87 1850.55 1643.11 1845.39 1631.77 1841.01C1596.18 1827.69 1549.64 1824.11 1512.43 1829.07C1464.3 1835.23 1405.22 1859.11 1375 1879.79C1376.97 1889.14 1372.42 1900.07 1367.05 1902.66C1355.7 1908.44 1344.78 1898.68 1342.79 1899.29C1339.8 1900.28 1330.65 1903.47 1324.1 1900.68C1317.51 1898.1 1313.36 1886.54 1315.94 1879.2C1317.91 1873.63 1325.9 1865.67 1325.9 1865.67C1324.68 1853.54 1332.64 1846.19 1343.58 1844.78C1349.76 1844.2 1354.11 1848.96 1359.1 1849.97C1363.67 1847.76 1366.86 1846.19 1369.23 1844.97C1372.02 1835.04 1376.2 1824.88 1378.98 1816.53C1383.55 1802.42 1390.31 1789.88 1398.87 1776.77C1411.2 1757.87 1433.09 1739.96 1459.12 1739.58C1451.17 1745.74 1446.58 1749.13 1441.62 1755.29C1433.08 1766.03 1426.49 1775.78 1420.54 1787.31C1415.17 1797.47 1410.18 1812.56 1409.4 1825.9C1420.66 1820.46 1432.07 1815.35 1443.63 1810.58ZM1439.77 1918.16C1446.53 1915.37 1453.68 1913.4 1460.85 1914.21C1444.13 1924.92 1428.83 1940.63 1424.65 1959.34C1424.25 1961.31 1424.25 1965.3 1426.04 1966.49C1430.8 1965.3 1442.94 1962.71 1446.13 1961.12C1448.1 1956.94 1453.07 1950.38 1456.47 1946C1468.4 1930.11 1485.52 1914.21 1509.17 1920.16C1493.65 1927.13 1484.7 1936.85 1477.94 1949.19C1476.75 1951.39 1475.97 1955.57 1477.54 1955.57C1481.52 1955.57 1496.65 1954.96 1498.83 1954.96C1505.79 1948.8 1526.09 1937.05 1540.02 1941.43C1533.05 1944.69 1526.67 1949.06 1521.12 1954.37C1519.73 1955.94 1517.93 1957.94 1517.55 1960.33C1529.86 1966.49 1540.81 1973.45 1550.96 1982.22C1556.33 1986.79 1564.09 1995.35 1568.85 2010.05C1556.92 1999.72 1517.93 1981.2 1496.66 1980.21C1482.73 1979.63 1465.45 1982.21 1456.69 1984.19C1423.07 1991.77 1388.47 2006.89 1358.83 2023.79C1359.04 2029.56 1358.03 2036.5 1351.49 2041.88C1347.1 2045.47 1337.56 2047.25 1333.95 2042.09C1331.98 2039.3 1319.04 2042.3 1316.28 2038.72C1316.28 2038.72 1312.88 2033.56 1312.48 2027.37C1312.1 2020.81 1316.46 2016.84 1320.05 2013.44C1321.04 2012.25 1320.84 2001.13 1329.19 1997.33C1334.36 1994.94 1339.53 1995.76 1343.91 1998.55C1345.72 1997.54 1347.1 1996.55 1348.3 1995.76C1349.28 1982.82 1351.67 1970.89 1356.46 1957.97C1363.02 1939.65 1384.5 1917.39 1402.99 1918.18C1390.45 1931.7 1380.32 1950.39 1376.92 1965.93C1375.94 1970.9 1375.56 1980.65 1375.56 1985.2C1379.99 1982.49 1384.64 1980.17 1389.46 1978.27C1391.46 1973.48 1397.22 1961.55 1400.2 1956.18C1407.73 1942.22 1424.65 1924.34 1439.77 1918.16ZM585.844 1524.83C588.231 1594.04 616.479 1677.6 655.259 1735.46H1233.85L1232.66 1654.72C1158.28 1654.72 1044.7 1605.58 999.748 1525.23L585.844 1524.83ZM983.614 1344.32C983.614 1712.28 1521.82 1712.28 1521.82 1348.09L1522.03 905.329L983.614 905.134V1344.32ZM1157.01 1167.97C1163.38 1161 1168.95 1151.86 1170.13 1144.1C1171.13 1137.73 1153.23 1138.14 1146.67 1142.12C1143.09 1144.3 1139.71 1148.68 1136.92 1152.66C1134.93 1155.64 1127.77 1158.03 1124.19 1154.66C1120.41 1151.08 1127.18 1144.91 1126.97 1141.13C1126.97 1134.76 1114.83 1144.31 1109.27 1141.72C1105.49 1139.93 1105.28 1134.17 1107.88 1130.78C1109.27 1128.99 1113.25 1129.78 1115.04 1127.81C1116.83 1125.81 1116.83 1122.83 1117.42 1120.25C1118.23 1117.27 1121.4 1115.87 1123.39 1113.69C1130.95 1106.33 1145.27 1093.79 1148.06 1094C1154.61 1094.6 1163.97 1097.98 1169.73 1094.99C1170.92 1094.39 1173.12 1092.4 1171.12 1091.21L1155.61 1081.04C1155.54 1079.44 1155.82 1077.84 1156.44 1076.36C1157.06 1074.88 1158 1073.56 1159.19 1072.48C1166.35 1066.11 1177.49 1070.5 1186.84 1069.1C1193.4 1068.1 1199.56 1065.52 1204.33 1060.95C1205.53 1065.73 1202.54 1070.5 1202.54 1075.47C1208.51 1081.04 1214.68 1085.8 1220.45 1091.19C1237.56 1108.28 1244.92 1133.16 1246.11 1155.04C1247.11 1165.18 1247.11 1175.51 1247.11 1192.43C1249.9 1185.27 1251.69 1174.72 1252.28 1165.57C1254.86 1138.51 1250.69 1114.45 1235.38 1093.96C1229.16 1085.32 1222.1 1077.32 1214.29 1070.08C1215.1 1062.13 1221.86 1048.61 1228.22 1053.59C1232.4 1056.76 1226.24 1061.54 1230.61 1064.32C1235.4 1067.29 1242.35 1066.91 1245.33 1066.3C1252.3 1064.52 1259.05 1062.73 1265.41 1062.13C1268.39 1061.94 1273.36 1060.54 1274.37 1063.52C1275.16 1065.51 1272.98 1066.91 1270.78 1067.7C1268.2 1068.5 1264.21 1067.9 1262.04 1070.08C1260.23 1071.87 1258.47 1073.87 1259.05 1076.45C1259.84 1079.43 1263.03 1081.03 1266.23 1080.03C1278.22 1076.71 1290.57 1074.84 1303.01 1074.45C1309.6 1074.45 1308.17 1079.24 1305 1081.02C1302.83 1082.21 1299.43 1083.21 1297.25 1083.42C1285.52 1084.79 1276.76 1085.6 1278.14 1092.35C1279.13 1096.93 1286.51 1092.55 1288.08 1095.93C1289.88 1099.51 1284.91 1101.5 1285.32 1103.9C1286.51 1111.46 1301.02 1109.86 1307.78 1108.27C1312.75 1107.07 1320.7 1103.1 1323.08 1106.28C1325.29 1109.06 1323.49 1113.44 1320.7 1114.25C1313.53 1116.23 1301.22 1119.81 1297.82 1123.78C1294.63 1127.57 1298.43 1135.32 1302.2 1135.72C1310.76 1136.71 1320.11 1136.71 1326.87 1138.69C1329.43 1139.5 1331.63 1141.29 1331.63 1144.06C1331.63 1147.05 1328.65 1148.04 1326.26 1148.84C1321.67 1150.22 1313.93 1150.22 1309.75 1152.03C1308.36 1152.62 1305.58 1153.62 1305.98 1155.2C1307.17 1158.19 1313.15 1157.38 1318.12 1157.98C1320.91 1158.19 1326.28 1160.38 1326.28 1163.36C1326.28 1166.55 1323.49 1167.54 1318.52 1167.15C1310.76 1166.55 1303.6 1167.54 1300.23 1168.94C1299.22 1169.33 1293.27 1170.12 1293.45 1172.92C1293.85 1176.29 1300.23 1174.11 1301.81 1177.5C1303.2 1180.69 1298.84 1182.47 1298.44 1186.45C1298.44 1188.04 1299.23 1188.83 1300.83 1189.43C1305.99 1191.61 1311.94 1191.4 1317.14 1190.43C1322.51 1189.43 1324.49 1196.6 1323.1 1197.39C1316.16 1201.17 1300.63 1197.2 1297.05 1199.38C1292.09 1202.56 1305.39 1209.72 1305 1211.31C1304.6 1213.1 1303.01 1214.89 1301.81 1215.29C1295.06 1217.87 1286.32 1212.89 1281.35 1215.69C1277.17 1218.28 1278.94 1224.84 1276.35 1228.22C1273.16 1232.4 1266.02 1230.61 1262.83 1233C1258.68 1235.97 1258.47 1243.14 1263.03 1247.52C1266.63 1250.89 1270 1253.27 1274.56 1255.47C1295.26 1265.81 1316.74 1276.15 1336.83 1274.75C1347.17 1274.16 1364.1 1273.58 1373.43 1275.97C1385.57 1278.94 1397.91 1288.27 1404.26 1292.28C1409.42 1295.45 1417.79 1296.26 1424.35 1293.85C1429.11 1292.28 1432.3 1286.7 1431.32 1281.92C1428.33 1266 1402.06 1261.05 1401.68 1245.14C1401.28 1226.84 1399.68 1216.89 1393.73 1205.35C1391.53 1200.97 1391.15 1190.83 1396.31 1189.44C1400.49 1188.45 1401.89 1194.22 1405.25 1192.83C1420.58 1186.86 1421.19 1162.6 1437.09 1158.01C1446.41 1155.42 1477.85 1155.04 1475.26 1151.05C1468.7 1141.69 1471.69 1130.96 1475.26 1125.98C1477.65 1122.81 1484.2 1119.61 1486.82 1122.81C1490.38 1126.98 1481.42 1131.95 1482.03 1138.12C1482.61 1143.89 1490.99 1155.04 1484.61 1161C1480.84 1164.58 1452.39 1165.79 1444.03 1178.51C1438.87 1186.25 1438.28 1192.43 1444.43 1191.83C1449.4 1191.23 1453.57 1185.27 1458.16 1181.88C1466.32 1175.93 1472.89 1173.53 1477.46 1177.9C1479.85 1180.08 1476.66 1184.27 1472.28 1185.46C1468.71 1186.66 1459.97 1196.01 1462.34 1198.39C1465.91 1202.17 1485.8 1184.88 1490.78 1188.45C1493.36 1190.43 1481.03 1203.17 1483.21 1206.54C1485.79 1210.71 1494.16 1204.15 1496.74 1207.34C1500.51 1212.12 1490.17 1221.47 1484.2 1225.64C1479.63 1228.61 1481.41 1239.77 1474.84 1243.15C1467.5 1246.73 1464.1 1253.07 1464.91 1254.09C1465.7 1255.65 1467.49 1256.87 1470.28 1255.07C1478.44 1249.91 1488.57 1243.74 1492.74 1245.33C1495.13 1246.33 1491.76 1257.65 1488.76 1263.02C1485.76 1268.39 1500.9 1265.41 1498.7 1269.99C1497.13 1273.38 1496.11 1278.55 1497.13 1283.31C1498.32 1289.49 1480.81 1290.85 1479.21 1295.03C1477.44 1299.82 1481.02 1301.01 1482.78 1301.22C1493.34 1302.81 1491.95 1312.54 1487.77 1316.72C1482.2 1322.29 1472.65 1324.47 1464.29 1323.07C1457.11 1321.88 1441.03 1318.92 1431.49 1311.75C1428.5 1309.57 1424.12 1311.14 1423.54 1314.14C1422.93 1317.53 1426.51 1323.68 1428.1 1328.86C1430.31 1336.61 1429.09 1346.37 1426.51 1353.94C1420.95 1369.65 1406.04 1382.77 1401.86 1401.67C1400.85 1406.64 1402.27 1412.81 1404.25 1417.58C1408.63 1427.95 1414.99 1437.67 1422.13 1446.44C1423.15 1449.23 1424.55 1452.39 1423.35 1454.97C1421.76 1458.96 1409.42 1467.52 1405.84 1470.91C1394.5 1481.45 1384.74 1495.18 1382.56 1510.1C1381.76 1515.47 1370.23 1520.83 1362.47 1523.01C1356.73 1524.61 1350.75 1526.2 1345.99 1529.98C1345.38 1534.34 1347.96 1538.14 1348.54 1542.49C1349.56 1550.07 1340.01 1553.84 1332.63 1556.23C1329.26 1557.42 1325.67 1558.43 1321.68 1558.43C1320.3 1558.43 1319.91 1556.02 1320.11 1554.84C1322.29 1544.5 1324.26 1536.15 1328.25 1527.6C1329.84 1524.41 1332.42 1521.83 1335.03 1519.63L1363.45 1495.76L1385.74 1463.74C1387.71 1460.76 1388.53 1458.16 1388.53 1455.99C1388.53 1449.8 1385.95 1444.05 1381.57 1440.07C1375.99 1435.08 1367.83 1434.3 1361.68 1431.11C1353.73 1427.13 1342.18 1416.01 1340.58 1415.2C1336.22 1413.02 1333.64 1420.97 1333.03 1425.53C1332.05 1432.5 1334.23 1439.06 1334.02 1446.02C1334.02 1449.22 1333.64 1450.99 1332.05 1452.99C1313.36 1463.73 1290.08 1467.71 1276.34 1484.8C1273.96 1487.79 1271.78 1490.99 1268.59 1493.17C1260.83 1498.54 1247.91 1492.38 1242.13 1500.72C1239.55 1504.52 1242.53 1509.49 1241.54 1513.66C1240.95 1516.05 1236.37 1519.24 1232.79 1521C1228 1523.21 1222.85 1524.4 1217.67 1524.8C1211.89 1522.01 1215.47 1513.86 1217.46 1508.09C1219.44 1502.11 1222.24 1496.15 1226.81 1492.17C1233.57 1486.19 1242.11 1478.64 1247.5 1476.06C1252.06 1473.86 1259.01 1473.86 1264.59 1471.68C1270.47 1469.88 1276.03 1467.2 1281.1 1463.73C1289.23 1458.57 1296.81 1452.2 1301.39 1443.44C1306.55 1433.48 1305.95 1420.19 1299.39 1411.63C1293.41 1403.87 1286.47 1396.3 1282.49 1387.57C1280.28 1382.78 1281.88 1376.22 1285.28 1371.84C1285.07 1371.66 1282.67 1370.04 1281.3 1370.45C1252.84 1371.67 1224.01 1368.48 1197.55 1357.93C1190.59 1355.15 1183.43 1346.18 1178.45 1345.6C1173.88 1344.99 1171.09 1350.76 1166.51 1351.96C1159.16 1353.95 1149.6 1352.76 1141.05 1351.96C1131.11 1350.97 1110.42 1346.59 1095.5 1341.83C1093.12 1342.2 1090.54 1342.62 1088.34 1344C1085.15 1346.18 1084.56 1350.97 1084.36 1354.95C1083.96 1360.32 1085.56 1365.29 1084.95 1370.87C1084.75 1373.65 1083.16 1376.64 1083.96 1379.23C1084.77 1382.4 1087.94 1383.8 1090.12 1385.79C1093.7 1389.17 1094.3 1396.13 1094.3 1401.71C1094.3 1407.87 1092.12 1416.04 1097.28 1420.23C1100.47 1422.78 1104.84 1419.42 1108.82 1420.23C1113.19 1421.02 1114.58 1426.39 1114.79 1430.57C1115 1435.32 1111.02 1445.45 1108.42 1448.07C1106.63 1449.85 1103.65 1448.45 1101.46 1447.46C1095.7 1444.88 1090.32 1440.71 1087.14 1435.13C1085.75 1432.74 1085.75 1429.76 1084.35 1427.18C1082.16 1422.8 1078.18 1420.24 1074.21 1417.25C1069.43 1413.65 1068.45 1407.09 1067.65 1401.33C1067.05 1395.94 1068.05 1390.77 1068.45 1385.39C1069.48 1374.75 1068.81 1364.01 1066.45 1353.58C1064.66 1345.63 1060.28 1337.66 1062.28 1329.71C1063.27 1325.94 1065.86 1322.35 1069.45 1320.75C1088.69 1319.85 1107.73 1316.51 1126.13 1310.82L1114.19 1299.06C1111.21 1299.06 1108.82 1302.05 1105.84 1302.05C1102.65 1302.05 1098.28 1297.48 1097.09 1295.89C1090.91 1286.74 1086.94 1276.17 1084.16 1265.43C1081.57 1261.26 1078.4 1257.09 1073.61 1255.1C1070.29 1253.66 1066.7 1252.97 1063.08 1253.1C1053.13 1257.48 1043.99 1266.04 1043.18 1276.99C1042.99 1279.78 1044.57 1282.15 1044.18 1284.94C1043.6 1289.7 1040.01 1292.89 1036.62 1296.29C1033.24 1299.66 1030.06 1303.05 1028.67 1307.82C1027.46 1311.8 1028.87 1315.98 1030.64 1319.75C1031.84 1322.33 1033.24 1324.91 1032.24 1327.7C1029.85 1334.26 1014.14 1341.02 1009.57 1341.02C1007.97 1341.02 1006.58 1338.84 1005.99 1337.04C1004.2 1331.06 1004.6 1324.71 1005.79 1318.75C1009.99 1314.2 1013.12 1308.76 1014.94 1302.84C1017.34 1294.89 1016.13 1286.33 1019.92 1278.95C1029.85 1262.05 1055.31 1228.24 1060.28 1223.27C1062.47 1221.09 1067.84 1219.88 1070.03 1221.28C1080.77 1228.25 1087.14 1236.8 1097.48 1242.17C1103.05 1244.95 1110 1249.14 1114.98 1245.16C1119.95 1241.18 1120.74 1214.53 1123.93 1207.76C1129.76 1196.02 1145.87 1180.5 1157.01 1167.97ZM1354.99 1002.28L1350.61 1018.98H1334.69L1355.39 940.619H1373.49L1393.39 1018.39H1377.45L1373.47 1002.28H1354.99ZM1371.29 988.05L1364.12 956.624L1357.36 988.05H1371.29ZM1313.19 963.148C1313.4 957.973 1311.8 951.216 1307.64 949.62C1303.25 948.025 1298.68 949.426 1296.69 952.409C1293.29 957.973 1293.29 965.534 1293.5 977.064C1293.5 984.029 1293.71 993.769 1295.1 998.361C1298.47 1008.89 1307.43 1009.5 1311.79 1002.93C1313.99 999.748 1313.99 993.575 1313.79 988.011H1304.62V976.468H1328.3V1018.63H1316.98V1012.87C1316.77 1013.28 1311.79 1017.05 1309.4 1018.26C1305.42 1020.03 1297.87 1020.03 1291.72 1017.45C1286.54 1015.26 1281.57 1008.31 1279.39 999.346C1277.18 989.995 1278.17 977.855 1278.17 967.519C1278.38 956.572 1284.15 944.445 1292.1 939.867C1297.68 936.689 1308.01 936.689 1314.56 939.076C1322.54 941.864 1328.7 953.394 1327.51 963.148H1313.19ZM1046.74 941.799C1053.11 945.781 1056.48 953.148 1055.31 961.695H1042.77C1042.77 953.745 1039.4 949.957 1032.63 949.763C1028.45 949.568 1023.28 954.341 1023.28 957.921C1023.07 968.452 1032.42 970.644 1038.79 972.629C1043.56 974.029 1049.33 977.012 1052.12 981.189C1057.28 988.75 1057.89 996.701 1053.72 1007.05C1051.73 1012.02 1044.17 1017.98 1037.8 1019.38C1030.64 1020.98 1021.89 1020.19 1014.73 1014.81C1008.96 1010.44 1006.36 1001.88 1007.56 994.12H1021.68C1021.68 997.907 1022.28 1000.68 1023.87 1003.07C1025.07 1004.66 1027.26 1007.24 1031.03 1007.44C1032.53 1007.55 1034.04 1007.33 1035.44 1006.79C1036.84 1006.25 1038.11 1005.42 1039.15 1004.33C1040.2 1003.25 1040.99 1001.95 1041.48 1000.53C1041.96 999.109 1042.13 997.598 1041.97 996.104C1041.17 983.964 1020.89 983.173 1013.92 975.417C1005.56 965.871 1008.15 950.554 1014.91 944.38C1024.27 935.639 1037.01 935.639 1046.74 941.799ZM1448.36 993.678C1448.57 996.662 1448.76 1007.21 1449.15 1013.96C1449.36 1015.95 1451.36 1018.54 1451.36 1018.74H1436.44C1434.44 1018.74 1434.24 1015.16 1434.05 1012.19C1433.65 1004.24 1434.43 985.339 1426.69 985.339H1417.14V1018.55H1402.23V940.982H1429.07C1442.6 940.982 1449.36 948.751 1449.36 959.283C1449.36 966.247 1449.15 974.405 1441.2 977.778C1445.36 981.746 1447.75 987.712 1448.36 993.678ZM1427.92 952.175H1416.78V973.07H1424.94C1438.45 973.07 1438.26 952.175 1427.92 952.175ZM1092.09 1018.88H1077.18V953.433H1060.07V940.308H1109.39V953.433H1092.09V1018.88ZM1188.12 1018.88V953.433H1171.01V940.308H1220.53V953.433H1203.02V1018.88H1188.12ZM1227.25 940.321H1276.77V953.641H1259.26V1018.88H1244.36V953.641H1227.25V940.321ZM1486 953.654V1019.09H1471.08V953.654H1453.99V940.334H1503.31V953.654H1486ZM1148.41 996.337V940.451H1162.92V994.95C1162.92 1027.57 1115.58 1027.57 1115.58 995.948V940.451H1130.09V996.545C1130.11 1008.68 1148.41 1008.68 1148.41 996.337ZM1181.9 1055.03C1186.28 1051.25 1192.43 1046.09 1199.59 1041.51C1205.95 1037.33 1198.8 1046.89 1198.39 1050.86C1197.2 1061.6 1189.04 1062.79 1180.09 1060.81C1178.52 1060.41 1179.12 1057.41 1181.9 1055.03ZM1555.94 1305.8L1935.84 1305.59L1952.74 1095.54L1555.94 1095.75V1305.8ZM1235.55 1959.95L843.722 1959.16C924.472 2031.77 1111.44 2167.61 1234.36 2222.71L1235.55 1959.95ZM951.903 1090C944.342 1096.76 929.232 1113.48 926.236 1121.03C932.812 1123.42 945.729 1129.19 951.903 1133.36V1090Z" fill="white"/>
</g>
<defs>
<clipPath id="clip0_1_18">
<rect width="2500" height="2500" fill="white"/>
</clipPath>
</defs>
</svg>
