<svg width="2210" height="1371" viewBox="0 0 2210 1371" fill="none" xmlns="http://www.w3.org/2000/svg">
<path fill-rule="evenodd" clip-rule="evenodd" d="M1813.55 1065.2V1362.68H1704.06V1065.2H1813.55ZM1461.73 1130.56C1521.1 1130.56 1569.76 1166.9 1569.76 1211.49C1569.76 1256.26 1521.1 1292.6 1461.73 1292.6C1402.37 1292.6 1353.72 1256.26 1353.72 1211.49C1353.72 1166.9 1402.37 1130.56 1461.73 1130.56ZM1490.6 1065.2L1400.91 963.987H1534.71L1657.98 1130.56C1669.99 1147.59 1679.07 1176.63 1680.36 1205.82C1684.76 1295.83 1581.92 1369.97 1461.73 1369.97C1341.54 1369.97 1243.1 1296.17 1243.1 1205.82C1243.09 1115.32 1331.32 1044.59 1490.6 1065.2ZM976.132 1231.79C976.132 1272.16 1013.59 1292.6 1044.41 1292.6C1075.22 1292.6 1116.27 1269.89 1116.27 1231.79V1065.2H1219.9V1231.79C1219.9 1347.26 1117.72 1370.45 1044.41 1370.45C971.256 1370.45 866.966 1347.26 866.966 1231.79V1065.2H976.132V1231.79ZM647.505 963.987L899.066 1362.66H773.519L729.24 1292.6H485.966L440.053 1362.66H311.925L546.133 1002.26L510.635 963.987H647.505ZM684.494 1220.91H532.19L609.399 1102.34L684.494 1220.91Z" fill="white"/>
<path fill-rule="evenodd" clip-rule="evenodd" d="M634.366 611.534C575.328 552.483 541.762 476.908 541.762 387.365C541.762 302.05 573.707 226.137 627.713 167.761C680.759 225.658 713.521 302.867 713.521 387.365C713.521 446.079 702.172 495.558 674.585 543.067C715.635 412.669 703.78 320.856 653.51 248.03C662.588 260.845 687.244 332.697 682.704 387.352C682.704 447.856 664.21 504.144 632.732 550.848L634.366 611.534ZM2209.79 387.378C2209.79 600.678 2035.75 774.369 1822.62 774.369C1733.41 774.369 1651.01 744.033 1583.7 692.478C1516.25 743.411 1433.34 774.369 1343.33 774.369C1254.44 774.369 1172.36 744.033 1104.74 693.931C1037.1 744.539 955.536 774.369 867.29 774.369C778.084 774.369 695.7 744.033 628.374 692.478C561.061 743.411 478.016 774.369 388.161 774.369C174.86 774.369 0.832062 600.665 0.832062 387.378C0.832062 174.09 174.86 0.0485275 388.161 0.0485275C478.016 0.0485275 561.061 31.0463 627.544 82.9383C694.222 31.0463 777.423 0.0485275 867.29 0.0485275C957.145 0.0485275 1039.06 30.8647 1105.71 81.4727C1173.63 28.599 1257.26 -0.060462 1343.33 0.0485275C1433.34 0.0485275 1516.25 31.0463 1582.74 82.9383C1649.55 31.0463 1732.76 0.0485275 1822.62 0.0485275C2043.86 0.0485275 2209.79 173.61 2209.79 387.378ZM1822.62 40.605C1757.08 40.605 1696.76 59.2555 1644.68 91.8615C1729.83 23.8869 1866.56 9.14035 2023.58 63.9635C1966.98 29.5807 1893.99 7.36346 1822.62 7.36346C1731.95 7.36346 1647.93 40.2807 1582.4 93.807L1583.38 137.437C1520.93 77.5947 1436.26 40.6179 1343.32 40.6179C1280.45 40.5104 1218.85 58.2877 1165.71 91.8745C1250.56 23.8999 1387.46 9.15331 1544.29 63.9765C1487.67 29.5937 1414.85 7.37643 1343.32 7.37643C1252.96 7.37643 1171.24 37.8684 1105.7 91.5502V137.45C1043.43 77.6077 960.218 40.6309 867.277 40.6309C804.362 40.5196 742.711 58.296 689.514 91.8874C774.491 23.9129 911.232 9.16627 1068.23 63.9895C1011.62 29.6066 938.805 7.38944 867.277 7.38944C776.761 7.38944 692.756 40.3067 627.064 93.8329L628.05 137.463C565.769 77.6207 481.089 40.6439 388.161 40.6439C325.2 40.5529 263.505 58.3266 210.242 91.9004C295.388 23.9259 432.116 9.17924 589.115 64.0024C532.515 29.6196 459.521 7.4024 388.161 7.4024C178.92 7.4024 8.13404 178.357 8.13404 387.417C8.13404 460.086 33.4251 539.552 76.4069 603.622C-10.3609 432.512 33.4251 302.426 88.7541 221.494C67.4967 269.016 39.7673 332.593 41.2329 387.417C46.5894 576.062 197.259 734.202 388.174 734.202C484.993 734.202 566.742 699.819 630.981 634.931C694.559 701.272 769.018 734.202 867.303 734.202C911.922 734.212 956.096 725.34 997.251 708.103C1038.41 690.865 1075.72 665.608 1107.01 633.803C1168.84 695.76 1249.43 734.202 1343.35 734.202C1440.35 734.202 1521.94 699.819 1586.15 634.931C1649.9 701.272 1724.19 734.202 1822.63 734.202C2013.54 734.202 2169.25 578.331 2169.25 387.417C2169.23 197.773 2012.23 40.605 1822.62 40.605ZM1059.97 610.081C1006.53 656.538 938.1 682.116 867.29 682.103C797.707 680.948 766.554 668.796 736.879 654.205C821.87 720.376 1010.67 694.748 1058.83 653.219C1006.29 691.013 940.258 712.763 867.277 712.763C777.734 712.763 702.315 680.001 642.965 621.443C703.949 559.318 734.765 481.305 734.765 387.391C734.765 296.07 698.93 212.558 640.695 150.433C685.298 105.661 773.532 61.8754 867.29 61.8754C952.605 61.8754 1032.89 100.642 1091.29 154.804H1048.3C993.317 220.651 963.616 295.435 963.616 387.391C963.616 460.06 988.921 539.526 1031.75 603.597C944.979 432.486 988.921 302.4 1044.08 221.468C1022.82 268.99 995.418 332.736 996.715 387.391C998.674 472.226 1037.1 550.887 1089.16 611.871L1059.97 610.081ZM1105.54 604.569C1050.72 546.179 1018.13 472.693 1018.13 387.378C1018.13 302.063 1051.37 224.049 1105.7 165.815C1161.02 223.881 1192.65 300.921 1192.65 387.378C1192.65 446.092 1181.29 495.571 1153.71 543.08C1194.75 412.682 1182.9 320.869 1132.63 248.043C1141.72 260.858 1166.37 332.71 1161.99 387.365C1161.99 449.658 1142.37 507.88 1109.11 555.569L1105.54 604.569ZM1122.42 621.741C1179.85 560.433 1214.05 478.529 1214.05 387.365C1214.05 296.045 1180.65 217.227 1122.42 154.778C1180.81 97.3736 1255.42 61.8494 1343.33 61.8494C1428.17 61.8494 1507.63 93.794 1565.54 147.489L1528.24 147.657C1472.79 215.236 1442.52 299.964 1442.59 387.378C1442.59 460.047 1467.89 539.513 1510.88 603.584C1424.11 432.473 1467.91 302.387 1523.21 221.455C1501.95 268.977 1474.37 332.399 1475.68 387.378C1477.62 478.205 1508.13 552.988 1566.83 615.749L1533.26 612.195C1482 655.515 1415.51 682.115 1343.32 682.115C1273.74 680.961 1245.35 667.187 1213.08 654.218C1297.9 720.389 1486.7 694.761 1534.87 653.232C1482.32 691.026 1416.3 712.776 1343.32 712.776C1249.74 712.75 1182.6 675.605 1122.42 621.741ZM1178.21 618.836C1224.59 652.246 1282.34 671.714 1343.32 671.714C1404.47 671.714 1464.31 651.105 1511.19 618.187C1464.96 554.117 1435.27 472.213 1435.27 387.378C1435.27 302.231 1463.02 223.245 1510.2 158.357C1462.07 122.227 1403.49 102.759 1343.31 102.899C1282.32 102.899 1225.87 121.549 1179.49 154.791C1224.08 217.733 1254.26 303.528 1254.26 387.378C1254.28 472.213 1224.44 554.765 1178.21 618.836ZM1106.7 540.499C1136.12 494.855 1151.72 441.681 1151.63 387.378C1151.63 329.96 1135.71 276.279 1105.71 232.973C1076.84 278.548 1059.01 331.102 1059.01 387.378C1059.01 442.525 1079.11 496.531 1106.7 540.499ZM1032.07 617.695C984.718 551.847 956.159 472.693 956.159 387.378C956.137 304.028 983.172 222.923 1033.2 156.256C986.806 123.975 927.612 102.899 867.446 102.899C795.256 98.8392 716.439 140.2 704.922 159.654C747.748 221.455 775.309 305.461 775.309 387.378C775.309 472.044 747.748 550.563 700.369 615.581C746.606 651.273 804.672 671.714 867.277 671.714C928.43 671.714 985.535 652.246 1032.07 617.695ZM611.5 615.749L577.922 612.195C526.665 655.515 460.338 682.115 388.161 682.115C318.578 680.961 297.956 664.425 257.582 654.218C342.598 720.389 531.373 694.761 579.712 653.232C527.002 691.026 460.986 712.776 388.161 712.776C209.101 712.776 62.633 566.633 62.633 387.404C62.633 208.174 208.932 61.8884 388.161 61.8884C472.983 61.8884 552.462 93.8329 610.372 147.528L572.902 147.696C519.545 213.051 487.263 296.745 487.263 387.417C487.263 460.086 512.723 539.552 555.549 603.622C468.781 432.512 512.736 302.426 567.883 221.494C546.639 269.016 519.221 332.438 520.53 387.417C522.45 478.205 552.786 552.975 611.5 615.749ZM628.854 538.06C657.385 492.979 672.513 440.716 672.471 387.365C672.471 331.906 656.428 279.845 628.361 235.385C600.632 278.86 582.798 331.906 582.798 387.365C582.798 441.708 602.084 495.234 628.854 538.06ZM556.029 618.187C509.804 554.117 479.948 472.213 479.948 387.378C479.948 302.231 507.703 223.245 554.887 158.357C506.824 122.227 448.29 102.757 388.161 102.899C231.473 102.899 103.669 230.703 103.669 387.378C103.669 544.078 231.473 671.714 388.161 671.714C449.158 671.714 509.169 651.105 556.029 618.187ZM1589.71 611.534C1530.67 552.483 1497.09 476.908 1497.09 387.365C1497.09 302.05 1529.05 226.137 1582.88 167.761C1636.09 225.658 1668.68 302.867 1668.68 387.365C1668.68 446.079 1657.34 495.558 1629.76 543.067C1670.96 412.669 1658.95 320.856 1608.84 248.03C1617.76 260.845 1642.58 332.697 1638.03 387.352C1638.03 447.856 1619.55 504.144 1588.07 550.848L1589.71 611.534ZM1598.29 621.43C1659.12 559.305 1690.1 481.292 1690.1 387.378C1690.1 296.058 1654.24 212.545 1595.85 150.42C1640.63 105.648 1728.7 61.8624 1822.6 61.8624C2001.68 61.8624 2147.79 208.148 2147.79 387.378C2147.79 446.092 2136.61 495.571 2109.04 543.08C2150.08 412.682 2138.07 320.869 2087.97 248.043C2096.89 260.858 2121.7 332.71 2117.15 387.365C2117.15 549.72 1984.8 682.09 1822.6 682.09C1753.02 680.935 1721.88 668.783 1692.04 654.192C1777.04 720.363 1965.82 694.735 2014 653.206C1961.45 691 1895.43 712.75 1822.6 712.75C1733.09 712.75 1657.65 679.988 1598.29 621.43ZM1655.55 615.581C1701.93 651.273 1760 671.714 1822.62 671.714C1979.12 671.714 2106.95 544.065 2106.95 387.378C2106.95 230.703 1979.14 102.899 1822.62 102.899C1750.44 98.8392 1671.61 140.2 1660.11 159.654C1702.92 221.455 1730.51 305.461 1730.51 387.378C1730.49 472.031 1702.92 550.55 1655.55 615.581ZM1584.19 538.06C1611.75 494.106 1627.81 442.525 1627.81 387.365C1627.81 331.906 1611.6 279.845 1583.7 235.385C1555.8 278.86 1538.11 331.906 1538.11 387.365C1538.11 441.708 1557.27 495.234 1584.19 538.06Z" fill="white"/>
</svg>
