<svg width="1713" height="2430" viewBox="0 0 1713 2430" fill="none" xmlns="http://www.w3.org/2000/svg">
<path d="M654.011 75.613L653.777 84.9778L643.932 87.1439L631.208 85.4707L611.999 89.5434L597.602 94.1091L586.071 94.8354L582.465 99.881L586.551 106.846L595.202 108.766L603.36 106.366L612.725 102.281L622.336 101.801L642.739 102.76L658.343 107.56L676.826 112.125L703.96 124.369L706.373 130.141L703.493 134.694L690.769 139.26L683.091 142.865L669.407 151.984L648.524 163.035L623.076 181.051L594.022 194.255L570.973 209.392L550.09 218.523L530.401 223.322L513.111 223.802L489.336 224.282L480.205 226.681L474.926 237.732L470.84 249.743L466.274 257.901L454.744 275.191L443.693 294.388L436.248 303.752L435.521 314.557L436.248 329.681V345.764L446.092 354.649L454.744 359.215L465.068 358.488L481.878 353.923L500.841 348.164L526.536 337.839L536.86 338.319L539.26 344.804L536.86 351.043L528.209 355.609L502.034 365.453L482.345 371.212L478.506 377.698L477.779 384.663L484.265 390.422L497.949 392.095H509L522.917 391.615L538.054 388.009L559.909 376.478L574.319 373.599L586.564 371.186L595.928 374.312L609.612 373.599L623.063 375.285L634.114 381.77L651.403 383.444L673.972 390.409L686.216 392.082L705.179 388.723L729.434 390.409L739.992 394.482L745.764 404.326L744.558 417.05L741.679 432.654L735.92 450.657L727.761 473.226L719.603 497.961L710.951 520.53L705.192 536.133L685.503 566.873L661.728 596.874L640.365 626.408L613.231 653.53L588.263 674.659L572.413 691.456L564.021 719.07L552.256 733.001L537.366 743.559L519.363 758.436L491.749 775.246L468.466 787.01L453.589 804.053L443.018 817.75L432.46 824.236L417.583 831.681L407.985 829.515L389.022 820.863L367.893 807.179L336.919 793.495L302.106 775.246L284.103 761.562L261.767 743.559L237.279 723.389L210.871 713.791L187.589 709.705L157.821 715.944L136.692 727.709L118.443 740.433L109.078 763.715L102.593 781.731L95.1474 809.332L86.7555 826.129L78.3506 851.824L77.1573 882.564L69.7122 900.567L61.3072 929.142L53.8621 957.716L40.1782 984.37L32.7331 1010.78L28.4139 1043.67L16.6496 1071.29L9.20446 1087.14L8.24462 1102.99L7.2848 1129.64V1176.22L1.9928 1195.41L5.11872 1212.22L3.89949 1239.84L13.5107 1261.93L20.9558 1267.21L34.6398 1262.87L47.3509 1251.34L65.6005 1229.25L81.4505 1203.81L87.6894 1182.68L83.6166 1165.63L78.3246 1144.5L71.8394 1119.06L65.6005 1092.42L62.2411 1072.23V1053.27L66.5603 1031.91L77.1184 999.247L87.6764 982.204L97.2876 973.566L104.72 962.035L118.417 960.829L124.902 956.756L134.5 948.104L145.058 938.74L154.656 926.016L158.729 911.151L162.102 898.427L163.061 881.384L166.187 866.507L173.632 857.142L181.077 854.976L190.676 858.102L204.373 865.547L219.25 882.59L235.1 905.872L253.103 927.001L272.312 944.045L289.356 957.729L306.114 965.161L311.393 975.732L306.114 981.024L288.098 976.938L262.649 974.772L229.756 968.287L198.069 962.048L159.897 960.842L137.574 962.048L120.544 972.606L102.541 988.456L87.6505 1013.9L76.1196 1042.71L74.9263 1063.84L81.4116 1102.01L96.2889 1150.76L103.734 1188.93L113.099 1226.14L119.584 1252.33L122.71 1276.82L131.102 1304.43L137.587 1346.69L143.826 1361.57L159.91 1374.29L174.8 1389.16L191.597 1414.62L203.361 1444.38L221.364 1470.79L247.785 1496.24L266.982 1508.01L279.693 1508.97L290.251 1505.84L296.736 1490.97L303.935 1478.25L308.254 1460.25V1418.94L302.975 1407.17C302.015 1407.17 302.015 1399.74 302.015 1398.78L299.849 1391.35L291.198 1378.64L275.348 1362.77L245.814 1350.06L235.009 1346.69L233.09 1328.69L234.049 1317.16L213.88 1293.86L201.156 1264.08L190.585 1221.81L181.947 1182.68L167.303 1151.94L162.024 1114.72L170.416 1092.4L185.306 1084H196.824L213.867 1098.89L238.356 1113.78L263.804 1123.14L325.258 1152.91L355.039 1169.95V1185.8L382.407 1201.64L417.466 1213.4H490.698L485.419 1227.1L482.306 1234.53L491.671 1252.3L509.674 1278.96L538.495 1307.52L573.308 1345.7L603.075 1372.1L658.784 1414.84L703.921 1439.08L737.774 1457.1L781.239 1486.63L821.331 1515.2L855.911 1544.49L891.917 1593.23L893.59 1613.62L901.748 1634.77L923.837 1650.62L944.02 1658.54L956.51 1656.84L966.381 1647.26L980.545 1632.13L983.917 1611.73L1000.71 1582.68L1004.31 1560.34L1006.97 1535.62L1008.64 1516.16L1014.16 1503.95L1025.44 1498.42H1036.25L1036.97 1506.58L1029.07 1515.22L1022.1 1533.93L1016.81 1545.46V1559.63L1014.9 1589.64L1010.6 1604.77L997.381 1627.57L979.598 1656.88L961.854 1688.8L951.309 1730.35L946.017 1773.81L951.309 1822.31L958.274 1850.65L975.071 1887.86L996.434 1932.04L1013.23 1966.61L1036.27 2002.87L1063.62 2036.49L1068.91 2048.01V2055.93L1065.32 2065.78L1055.72 2081.63L1040.6 2102.76L1009.61 2142.63L978.625 2176.22L950.297 2207.22L938.066 2214.42L913.085 2224.02L898.195 2238.2L890.269 2254.28L872.513 2276.36L852.369 2298.43L827.635 2324.13L812.498 2350.53L803.613 2377.19L798.334 2399.27L799.294 2417.03L809.852 2428.32H848.764L865.548 2426.65L883.11 2416.1L906.146 2405.53L909.725 2396.65H917.65L929.882 2391.35L941.412 2380.56L947.664 2338.3L944.046 2329.39L942.372 2320.51L948.624 2322.18L955.563 2324.1L962.788 2318.81L974.319 2311.61L986.55 2295.76L1001.67 2274.4L1009.6 2254.95L1011.27 2239.09L1021.13 2231.88L1035.29 2223.97L1046.82 2217L1056.42 2197.56L1076.84 2176.21L1114.98 2140.9L1144.03 2121.46L1173.35 2105.38L1180.28 2098.41L1182.94 2091.2L1189.15 2083.29L1184.82 2072.74L1183.9 2053.29L1180.03 2035.06L1175.47 2024.51L1165.39 2007.22L1149.32 1987.03L1141.41 1971.91L1139.72 1956.05V1934.7L1143.3 1922.47L1152.9 1889.57L1162.73 1873.72L1173.31 1867.48L1192.74 1855.24L1215.79 1835.55L1246.78 1809.16L1267.91 1787.07L1289.26 1762.33L1311.35 1737.36L1327.21 1709.27L1340.41 1685.25L1352.9 1657.89L1361.79 1627.62L1364.45 1599.55L1366.12 1578.19L1373.33 1571.22L1381.24 1569.32L1388.21 1573.9L1394.45 1588.77L1396.12 1609.16L1399.03 1628.61L1397.12 1641.84L1395.42 1662.24V1705.7L1400.7 1740.04L1406.91 1748.92L1412.21 1748.19L1414.84 1741.96L1411.25 1727.79V1703.76L1418.46 1683.59L1421.83 1654.3L1425.41 1633.88L1430 1624.29H1435.28L1439.59 1628.61L1443.92 1645.42L1447.5 1661.5L1445.82 1686.95L1440.53 1721.53L1424.46 1755.16L1409.6 1787.08L1400.69 1814.45L1399.01 1831.26L1400.69 1850.7L1406.9 1869.42H1418.44L1424.45 1861.26L1421.06 1852.37L1418.44 1836.51L1428.99 1822.33L1441.25 1805.52L1449.4 1789.69L1468.83 1758.69L1484.7 1730.35L1491.66 1699.36L1497.89 1658.55V1617.97L1489.99 1589.63L1474.13 1567.54L1472.21 1557L1479.43 1553.4L1488.33 1557.71L1499.86 1571.89L1514.02 1597.57L1520.03 1627.55L1523.62 1667.41L1532.52 1695.03L1533.48 1695.75L1545.71 1723.12L1553.62 1726L1557.2 1718.8L1556.26 1714.47L1550.24 1694.08L1549.29 1673.68L1550.24 1643.68L1555.53 1610.06V1593.25L1553.62 1579.08L1539.45 1550.73L1527.2 1530.33L1531.53 1522.42L1548.37 1518.82L1571.38 1508.28L1596.12 1495.05L1618.2 1475.6L1646.54 1437.45L1662.62 1405.76L1675.83 1375.51L1680.16 1327.01L1681.12 1283.55L1674.16 1229.77L1666 1190.87L1659.04 1151.02L1654.7 1109.48L1658.09 1083.08L1665.29 1050.18L1680.16 1017.52L1701.51 983.916L1709.44 962.554L1711.11 951.996L1704.17 942.398L1694.37 937.793V952.93L1686.44 961.814L1672.28 982.944L1664.35 988.223L1642.26 1014.88L1633.39 1029.04L1622.83 1052.82L1611.3 1054.74L1600.75 1048.5L1594.49 1020.16L1596.19 987.509L1603.4 957.249L1620.95 928.908L1656.45 875.845L1677.62 832.627L1680.24 802.367L1676.87 792.769L1670.66 799.008L1660.1 825.416L1644.02 852.07L1620.23 871.526L1592.87 897.934L1552.07 945.718L1544.15 944.992L1541.52 936.833L1540.56 917.377L1543.2 881.124L1555.69 840.553L1577.77 795.415L1607.06 759.162L1643.31 728.188L1646.69 720.99L1642.36 717.63L1623.88 727.229L1608.74 737.073L1583.05 759.162L1551.13 787.503L1528.3 818.477L1505.98 859.049L1493.75 891.942L1490.16 924.602L1488.46 968.78L1499.02 1014.88L1509.58 1054.74L1529.98 1117.41L1543.2 1192.56L1551.12 1249.93V1280.93L1547.73 1313.58L1542.48 1340.26L1532.61 1370.24L1495.4 1417.06L1457.45 1451.62L1408.72 1478.99L1361.89 1481.62L1355.68 1458.81L1338.88 1425.91L1315.83 1394.23L1300.71 1375.52L1280.54 1348.16L1237.05 1306.64L1192.89 1270.38L1173.46 1255.23L1112.46 1213.94L1024.83 1140.46L977.03 1081.16L924.706 995.447L910.53 944.071L914.109 912.137L921.321 905.898L939.83 918.376L969.118 932.54L992.906 931.58L1020.25 944.071L1049.55 961.84L1064.67 974.085L1084.13 987.535L1104.3 990.181L1108.86 981.296L1103.57 980.336L1097.34 982.982L1087.51 976.744L1078.85 963.54L1066.38 943.124L1042.36 921.048L1018.6 912.163L1005.37 909.517L1008.03 902.552H1026.5L1047.86 909.517L1078.84 929.92L1093.03 936.159L1098.29 928.947L1089.38 916.703L1065.37 895.327L1028.16 875.884L983.243 858.361L974.371 851.162L983.243 844.924L1003.42 854.768L1040.66 861.007L1080.5 876.857L1101.63 887.415L1138.84 892.694L1165.5 889.101L1180.37 882.136L1200.78 869.646L1209.68 861.007L1210.64 854.768L1202.38 855.443L1194.49 863.601L1168.07 872.253L1145.02 875.845L1125.57 873.199L1106.85 858.322L1090.06 838.633L1069.89 823.756L1039.64 817.517L1010.58 807.672L998.094 799.747L999.054 792.795L1010.58 794.468H1036.27L1061.93 792.795H1088.36L1102.53 790.149L1114.06 799.747L1132.53 804.313H1147.66L1154.62 799.034L1142.39 795.428L1127.27 785.583L1111.4 770.706L1085.72 757.256L1064.59 754.61L1045.16 751.964L1037.94 747.644L1052.13 739.719H1075.15L1092.93 744.998L1110.47 753.896L1138.8 766.14L1167.13 767.1L1182.25 759.902L1186.58 750.29L1175.05 745.011L1151.29 744.051L1130.87 737.086L1113.13 721.963L1093.67 712.118L1068.01 707.799L1045.92 699.874L1036.32 687.396L1037.99 681.157L1052.18 684.037L1069.94 689.316L1080.5 697.241L1095.62 698.914L1097.29 690.989L1081.46 678.511L1076.86 667.227L1098.21 670.586L1118.38 681.144L1144.06 684.024L1153.92 702.507L1180.32 718.357L1181.76 718.11L1187.53 715.711L1194.49 711.392L1191.11 706.113L1181.25 706.826L1172.37 694.582L1154.58 667.214L1123.62 639.612L1091.94 625.449L1083.04 614.891L1063.58 591.842L1045.83 582.244L1043.19 573.359L1051.09 568.08L1069.83 572.399L1106.8 582.957L1124.58 589.196L1136.11 605.279L1154.58 614.891H1168.76L1187.49 620.17L1207.88 616.564L1215.8 609.598L1204.27 599.754L1187.48 595.435L1168.02 592.789L1156.48 582.944L1141.35 560.855L1137.77 546.691L1118.32 529.155L1097.19 515.705L1073.15 500.814L1046.76 476.092L1045.09 468.881H1051.07L1085.65 496.249L1120.95 516.651L1139.68 530.815L1163.47 552.891L1184.82 564.409L1197.08 568.015L1203.3 558.17L1194.43 554.811L1175.92 538.001L1170.64 519.284L1151.21 498.155L1135.13 484.705L1127.2 464.536L1099.85 423.73L1062.64 391.07L1060.94 380.512L1074.14 382.186L1092.88 391.797L1122.87 404.274L1153.86 405.961L1176.91 416.765L1201.63 421.084L1222.76 414.845L1221.08 405.961L1197.06 400.669L1175.92 391.07L1133.43 370.668L1110.41 358.19L1098.15 343.3L1102.48 338.008L1108.71 342.327L1118.31 345.933L1130.8 346.893H1151.21L1168.72 344.973L1195.4 343.3L1215.79 351.225L1236.92 366.348L1245.82 368.994L1246.78 361.069L1239.55 353.871L1218.42 334.415L1185.54 317.605L1161.78 314.959L1116.64 312.313L1106.1 299.835L1083.06 276.787L1057.38 259.263L1047.78 250.379L1055.71 244.14L1067.94 249.419L1090.02 260.95L1114.98 269.834L1148.6 277.759H1177.66L1201.68 304.414L1221.14 315.932L1228.1 308.733L1201.68 269.834L1160.14 239.833L1125.56 231.675L1096.27 200.935L1070.59 185.811L1035.29 176.926L1054.75 160.129L1089.3 148.598L1114.98 140.673L1120.99 132.761L1117.63 126.523L1103.44 122.93L1090.02 120.284L990.143 122.203L972.386 102.514L952.204 89.31L926.535 77.7791L892.902 72.4871H863.849L855.936 61.9291L828.568 32.6415L795.675 2.61465L775.506 36.2344L774.546 46.7924L784.157 59.2701L785.117 69.8282L778.165 76.067L755.829 77.7402L715.245 66.2094L675.386 57.6099L656.89 58.3233L626.643 64.5621L630.235 75.1331L647.045 74.4068L654.011 75.613Z" fill="white" stroke="black" stroke-width="2.80164" stroke-miterlimit="2.613"/>
</svg>
