<svg width="264" height="162" viewBox="0 0 264 162" fill="none" xmlns="http://www.w3.org/2000/svg">
<g clip-path="url(#clip0_1_50)">
<path d="M0 0L5.2608 162H30.8304L30.2712 94.8221H51.7128V73.8814H30.2712L30.3504 21.1681H58.344L58.1928 0H0ZM68.3016 0L71.5368 162H97.9416L98.4768 0.00239323L68.3016 0ZM192.086 0V20.4334H212.942L212.342 162H237.888L243.314 20.4118H264L263.842 0H192.086ZM138.295 74.9775L138.583 19.9523H153.329C160.013 32.2057 164.306 48.4126 167.674 74.9775H138.295ZM114.739 161.995H139.183L139.457 95.0088H168.744C171.046 106.831 171.61 143.328 171.746 161.995H195.458C197.702 79.2924 190.752 32.5479 171.55 0H112.502L114.739 161.995Z" fill="white"/>
</g>
<defs>
<clipPath id="clip0_1_50">
<rect width="264" height="162" fill="white"/>
</clipPath>
</defs>
</svg>
